<?xml version="1.0" encoding="UTF-8" standalone="no"?>
<!-- Created with Inkscape (http://www.inkscape.org/) -->

<svg
   version="1.1"
   id="svg1"
   width="963.77826"
   height="252.12801"
   viewBox="0 0 963.77826 252.12801"
   sodipodi:docname="Banderole_235x47mm_1er_druck_Vorlage_04.pdf"
   inkscape:export-filename="../Documents/Projects/logo-pattern-generator/public/banderole/Banderole_235x47mm_1er_druck_Vorlage_04.svg"
   inkscape:export-xdpi="96"
   inkscape:export-ydpi="96"
   xmlns:inkscape="http://www.inkscape.org/namespaces/inkscape"
   xmlns:sodipodi="http://sodipodi.sourceforge.net/DTD/sodipodi-0.dtd"
   xmlns="http://www.w3.org/2000/svg"
   xmlns:svg="http://www.w3.org/2000/svg">
  <defs
     id="defs1">
    <pattern
       patternTransform="rotate(45,-7805.1867,8236.6524)"
       patternUnits="userSpaceOnUse"
       x="0"
       y="0"
       width="5.66929"
       height="4.00025"
       id="pattern11">
      <path
         d="m 3.259,-13.087 -0.85,0 0,14.173 0.85,0 0,-14.173 z"
         style="fill:#ca567d;fill-opacity:1;fill-rule:nonzero;stroke:none"
         id="path3" />
      <path
         d="m 3.259,-11.087 -0.85,0 0,14.173 0.85,0 0,-14.173 z"
         style="fill:#ca567d;fill-opacity:1;fill-rule:nonzero;stroke:none"
         id="path4" />
      <path
         d="m 3.259,-9.087 -0.85,0 0,14.173 0.85,0 0,-14.173 z"
         style="fill:#ca567d;fill-opacity:1;fill-rule:nonzero;stroke:none"
         id="path5" />
      <path
         d="m 3.259,-7.087 -0.85,0 0,14.173 0.85,0 0,-14.173 z"
         style="fill:#ca567d;fill-opacity:1;fill-rule:nonzero;stroke:none"
         id="path6" />
      <path
         d="m 3.259,-5.087 -0.85,0 0,14.173 0.85,0 0,-14.173 z"
         style="fill:#ca567d;fill-opacity:1;fill-rule:nonzero;stroke:none"
         id="path7" />
      <path
         d="m 3.259,-3.087 -0.85,0 0,14.173 0.85,0 0,-14.173 z"
         style="fill:#ca567d;fill-opacity:1;fill-rule:nonzero;stroke:none"
         id="path8" />
      <path
         d="m 3.259,-1.087 -0.85,0 0,14.173 0.85,0 0,-14.173 z"
         style="fill:#ca567d;fill-opacity:1;fill-rule:nonzero;stroke:none"
         id="path9" />
      <path
         d="m 3.259,0.914 -0.85,0 0,14.173 0.85,0 0,-14.173 z"
         style="fill:#ca567d;fill-opacity:1;fill-rule:nonzero;stroke:none"
         id="path10" />
      <path
         d="m 3.259,2.914 -0.85,0 0,14.173 0.85,0 0,-14.173 z"
         style="fill:#ca567d;fill-opacity:1;fill-rule:nonzero;stroke:none"
         id="path11" />
    </pattern>
    <clipPath
       clipPathUnits="userSpaceOnUse"
       id="clipPath12">
      <path
         d="M 0,189.096 H 725.606 V 0 H 0 Z"
         transform="translate(-603.98741,-157.5011)"
         id="path12" />
    </clipPath>
    <clipPath
       clipPathUnits="userSpaceOnUse"
       id="clipPath14">
      <path
         d="M 0,189.096 H 725.606 V 0 H 0 Z"
         transform="translate(-204.06261,-161.0094)"
         id="path14" />
    </clipPath>
    <clipPath
       clipPathUnits="userSpaceOnUse"
       id="clipPath16">
      <path
         d="M 0,189.096 H 725.606 V 0 H 0 Z"
         transform="translate(-221.07051,-161.0094)"
         id="path16" />
    </clipPath>
    <clipPath
       clipPathUnits="userSpaceOnUse"
       id="clipPath18">
      <path
         d="M 0,189.096 H 725.606 V 0 H 0 Z"
         transform="translate(-504.53512,-160.7556)"
         id="path18" />
    </clipPath>
    <clipPath
       clipPathUnits="userSpaceOnUse"
       id="clipPath20">
      <path
         d="M 0,189.096 H 725.606 V 0 H 0 Z"
         transform="translate(-521.54302,-160.7556)"
         id="path20" />
    </clipPath>
    <clipPath
       clipPathUnits="userSpaceOnUse"
       id="clipPath22">
      <path
         d="M 0,189.096 H 725.606 V 0 H 0 Z"
         transform="translate(-722.83372,-160.7556)"
         id="path22" />
    </clipPath>
    <clipPath
       clipPathUnits="userSpaceOnUse"
       id="clipPath24">
      <path
         d="M 0,189.096 H 725.606 V 0 H 0 Z"
         transform="translate(-694.48772,-166.4256)"
         id="path24" />
    </clipPath>
    <clipPath
       clipPathUnits="userSpaceOnUse"
       id="clipPath26">
      <path
         d="M 0,189.096 H 725.606 V 0 H 0 Z"
         transform="translate(-694.48772,0.81860252)"
         id="path26" />
    </clipPath>
    <clipPath
       clipPathUnits="userSpaceOnUse"
       id="clipPath28">
      <path
         d="M 0,189.096 H 725.606 V 0 H 0 Z"
         transform="translate(0,-27.527401)"
         id="path28" />
    </clipPath>
    <clipPath
       clipPathUnits="userSpaceOnUse"
       id="clipPath30">
      <path
         d="M 0,189.096 H 725.606 V 0 H 0 Z"
         transform="translate(-28.346001,-21.857401)"
         id="path30" />
    </clipPath>
    <clipPath
       clipPathUnits="userSpaceOnUse"
       id="clipPath32">
      <path
         d="M 0,189.096 H 725.606 V 0 H 0 Z"
         transform="translate(-28.346001,-189.1015)"
         id="path32" />
    </clipPath>
    <clipPath
       clipPathUnits="userSpaceOnUse"
       id="clipPath34">
      <path
         d="M 0,189.096 H 725.606 V 0 H 0 Z"
         transform="translate(-22.6759,-160.7556)"
         id="path34" />
    </clipPath>
    <clipPath
       clipPathUnits="userSpaceOnUse"
       id="clipPath36">
      <path
         d="M 0,189.096 H 725.606 V 0 H 0 Z"
         transform="translate(-700.15782,-27.527401)"
         id="path36" />
    </clipPath>
    <pattern
       patternTransform="rotate(45,-7805.1867,8236.6524)"
       patternUnits="userSpaceOnUse"
       x="0"
       y="0"
       width="5.66929"
       height="4.00025"
       id="pattern46">
      <path
         d="m 3.259,-13.087 -0.85,0 0,14.173 0.85,0 0,-14.173 z"
         style="fill:#ca567d;fill-opacity:1;fill-rule:nonzero;stroke:none"
         id="path38" />
      <path
         d="m 3.259,-11.087 -0.85,0 0,14.173 0.85,0 0,-14.173 z"
         style="fill:#ca567d;fill-opacity:1;fill-rule:nonzero;stroke:none"
         id="path39" />
      <path
         d="m 3.259,-9.087 -0.85,0 0,14.173 0.85,0 0,-14.173 z"
         style="fill:#ca567d;fill-opacity:1;fill-rule:nonzero;stroke:none"
         id="path40" />
      <path
         d="m 3.259,-7.087 -0.85,0 0,14.173 0.85,0 0,-14.173 z"
         style="fill:#ca567d;fill-opacity:1;fill-rule:nonzero;stroke:none"
         id="path41" />
      <path
         d="m 3.259,-5.087 -0.85,0 0,14.173 0.85,0 0,-14.173 z"
         style="fill:#ca567d;fill-opacity:1;fill-rule:nonzero;stroke:none"
         id="path42" />
      <path
         d="m 3.259,-3.087 -0.85,0 0,14.173 0.85,0 0,-14.173 z"
         style="fill:#ca567d;fill-opacity:1;fill-rule:nonzero;stroke:none"
         id="path43" />
      <path
         d="m 3.259,-1.087 -0.85,0 0,14.173 0.85,0 0,-14.173 z"
         style="fill:#ca567d;fill-opacity:1;fill-rule:nonzero;stroke:none"
         id="path44" />
      <path
         d="m 3.259,0.914 -0.85,0 0,14.173 0.85,0 0,-14.173 z"
         style="fill:#ca567d;fill-opacity:1;fill-rule:nonzero;stroke:none"
         id="path45" />
      <path
         d="m 3.259,2.914 -0.85,0 0,14.173 0.85,0 0,-14.173 z"
         style="fill:#ca567d;fill-opacity:1;fill-rule:nonzero;stroke:none"
         id="path46" />
    </pattern>
    <clipPath
       clipPathUnits="userSpaceOnUse"
       id="clipPath47">
      <path
         d="M 28.863,37.705 H 93.597 V 156.089 H 28.863 Z"
         transform="translate(-76.448304,-94.424305)"
         id="path47" />
    </clipPath>
  </defs>
  <sodipodi:namedview
     id="namedview1"
     pagecolor="#ffffff"
     bordercolor="#000000"
     borderopacity="0.25"
     inkscape:showpageshadow="2"
     inkscape:pageopacity="0.0"
     inkscape:pagecheckerboard="0"
     inkscape:deskcolor="#d1d1d1">
    <inkscape:page
       x="0"
       y="0"
       width="963.77826"
       height="252.12801"
       id="page2"
       margin="0"
       bleed="0" />
  </sodipodi:namedview>
  <g
     id="layer-MC0"
     inkscape:groupmode="layer"
     inkscape:label="Stanze (nicht löschen)">
    <path
       id="path1"
       d="M 28.346,160.756 H 694.488 V 27.528 H 28.346 Z"
       style="fill:none;stroke:#00a650;stroke-width:0.945;stroke-linecap:butt;stroke-linejoin:miter;stroke-miterlimit:10;stroke-dasharray:none;stroke-opacity:1"
       transform="matrix(1.3333333,0,0,-1.3333333,0,252.128)" />
    <path
       id="path2"
       d="m 0,0 v -16.934 c -1.017,0.067 -2.04,0.113 -3.073,0.113 -25.55,0 -46.26,-20.71 -46.26,-46.26 0,-25.54 20.71,-46.25 46.26,-46.25 1.033,0 2.056,0.046 3.073,0.113 V -126.01 H 87.229 V 0 Z"
       style="fill:url(#pattern11);fill-opacity:1;fill-rule:nonzero;stroke:#ca567d;stroke-width:0.945;stroke-linecap:butt;stroke-linejoin:miter;stroke-miterlimit:10;stroke-dasharray:none;stroke-opacity:1"
       transform="matrix(1.3333333,0,0,-1.3333333,805.31653,42.126533)"
       clip-path="url(#clipPath12)" />
    <path
       id="path13"
       d="M 0,0 V -133.228"
       style="fill:none;stroke:#ca567d;stroke-width:0.945;stroke-linecap:butt;stroke-linejoin:miter;stroke-miterlimit:10;stroke-dasharray:none;stroke-opacity:1"
       transform="matrix(1.3333333,0,0,-1.3333333,272.08347,37.4488)"
       clip-path="url(#clipPath14)" />
    <path
       id="path15"
       d="M 0,0 V -133.228"
       style="fill:none;stroke:#ca567d;stroke-width:0.945;stroke-linecap:butt;stroke-linejoin:miter;stroke-miterlimit:10;stroke-dasharray:none;stroke-opacity:1"
       transform="matrix(1.3333333,0,0,-1.3333333,294.76067,37.4488)"
       clip-path="url(#clipPath16)" />
    <path
       id="path17"
       d="M 0,0 V -133.228"
       style="fill:none;stroke:#ca567d;stroke-width:0.945;stroke-linecap:butt;stroke-linejoin:miter;stroke-miterlimit:10;stroke-dasharray:none;stroke-opacity:1"
       transform="matrix(1.3333333,0,0,-1.3333333,672.71347,37.7872)"
       clip-path="url(#clipPath18)" />
    <path
       id="path19"
       d="M 0,0 V -133.228"
       style="fill:none;stroke:#ca567d;stroke-width:0.945;stroke-linecap:butt;stroke-linejoin:miter;stroke-miterlimit:10;stroke-dasharray:none;stroke-opacity:1"
       transform="matrix(1.3333333,0,0,-1.3333333,695.39067,37.7872)"
       clip-path="url(#clipPath20)" />
    <path
       id="path21"
       d="M 0,0 H -22.677"
       style="fill:none;stroke:#796057;stroke-width:1;stroke-linecap:butt;stroke-linejoin:miter;stroke-miterlimit:10;stroke-dasharray:none;stroke-opacity:1"
       transform="matrix(1.3333333,0,0,-1.3333333,963.77827,37.7872)"
       clip-path="url(#clipPath22)" />
    <path
       id="path23"
       d="M 0,0 V 22.67"
       style="fill:none;stroke:#796057;stroke-width:1;stroke-linecap:butt;stroke-linejoin:miter;stroke-miterlimit:10;stroke-dasharray:none;stroke-opacity:1"
       transform="matrix(1.3333333,0,0,-1.3333333,925.9836,30.2272)"
       clip-path="url(#clipPath24)" />
    <path
       id="path25"
       d="M 0,0 V 22.677"
       style="fill:none;stroke:#796057;stroke-width:1;stroke-linecap:butt;stroke-linejoin:miter;stroke-miterlimit:10;stroke-dasharray:none;stroke-opacity:1"
       transform="matrix(1.3333333,0,0,-1.3333333,925.9836,253.21947)"
       clip-path="url(#clipPath26)" />
    <path
       id="path27"
       d="M 0,0 H 22.677"
       style="fill:none;stroke:#796057;stroke-width:1;stroke-linecap:butt;stroke-linejoin:miter;stroke-miterlimit:10;stroke-dasharray:none;stroke-opacity:1"
       transform="matrix(1.3333333,0,0,-1.3333333,0,215.4248)"
       clip-path="url(#clipPath28)" />
    <path
       id="path29"
       d="M 0,0 V -22.67"
       style="fill:none;stroke:#796057;stroke-width:1;stroke-linecap:butt;stroke-linejoin:miter;stroke-miterlimit:10;stroke-dasharray:none;stroke-opacity:1"
       transform="matrix(1.3333333,0,0,-1.3333333,37.794667,222.9848)"
       clip-path="url(#clipPath30)" />
    <path
       id="path31"
       d="M 0,0 V -22.677"
       style="fill:none;stroke:#796057;stroke-width:1;stroke-linecap:butt;stroke-linejoin:miter;stroke-miterlimit:10;stroke-dasharray:none;stroke-opacity:1"
       transform="matrix(1.3333333,0,0,-1.3333333,37.794667,-0.00733333)"
       clip-path="url(#clipPath32)" />
    <path
       id="path33"
       d="M 0,0 H -22.67"
       style="fill:none;stroke:#796057;stroke-width:1;stroke-linecap:butt;stroke-linejoin:miter;stroke-miterlimit:10;stroke-dasharray:none;stroke-opacity:1"
       transform="matrix(1.3333333,0,0,-1.3333333,30.234533,37.7872)"
       clip-path="url(#clipPath34)" />
    <path
       id="path35"
       d="M 0,0 H 22.67"
       style="fill:none;stroke:#796057;stroke-width:1;stroke-linecap:butt;stroke-linejoin:miter;stroke-miterlimit:10;stroke-dasharray:none;stroke-opacity:1"
       transform="matrix(1.3333333,0,0,-1.3333333,933.54373,215.4248)"
       clip-path="url(#clipPath36)" />
    <path
       id="path37"
       d="m 0,0 c 0,-25.548 -20.71,-46.258 -46.258,-46.258 -25.548,0 -46.258,20.71 -46.258,46.258 0,25.548 20.71,46.258 46.258,46.258 C -20.71,46.258 0,25.548 0,0"
       style="fill:url(#pattern46);fill-opacity:1;fill-rule:nonzero;stroke:#ca567d;stroke-width:0.945;stroke-linecap:butt;stroke-linejoin:miter;stroke-miterlimit:10;stroke-dasharray:none;stroke-opacity:1"
       transform="matrix(1.3333333,0,0,-1.3333333,101.93107,126.22893)"
       clip-path="url(#clipPath47)" />
  </g>
</svg>
