<?xml version="1.0" encoding="UTF-8" standalone="no"?>
<!-- Created with Inkscape (http://www.inkscape.org/) -->

<svg
   width="100.0001mm"
   height="46.999714mm"
   viewBox="0 0 100.0001 46.999714"
   version="1.1"
   id="svg1"
   xml:space="preserve"
   inkscape:version="1.3.2 (091e20e, 2023-11-25)"
   sodipodi:docname="Banderole_Backside.svg"
   xmlns:inkscape="http://www.inkscape.org/namespaces/inkscape"
   xmlns:sodipodi="http://sodipodi.sourceforge.net/DTD/sodipodi-0.dtd"
   xmlns="http://www.w3.org/2000/svg"
   xmlns:svg="http://www.w3.org/2000/svg"><sodipodi:namedview
     id="namedview1"
     pagecolor="#ffffff"
     bordercolor="#000000"
     borderopacity="0.25"
     inkscape:showpageshadow="2"
     inkscape:pageopacity="0.0"
     inkscape:pagecheckerboard="0"
     inkscape:deskcolor="#d1d1d1"
     inkscape:document-units="mm"
     inkscape:zoom="0.37859596"
     inkscape:cx="373.74937"
     inkscape:cy="-33.016729"
     inkscape:window-width="1680"
     inkscape:window-height="980"
     inkscape:window-x="0"
     inkscape:window-y="38"
     inkscape:window-maximized="0"
     inkscape:current-layer="layer1"><inkscape:page
       x="0"
       y="0"
       width="100.0001"
       height="46.999714"
       id="page2"
       margin="0"
       bleed="0" /></sodipodi:namedview><defs
     id="defs1" /><g
     inkscape:label="Ebene 1"
     inkscape:groupmode="layer"
     id="layer1"
     transform="translate(0,-0.02997233)"><path
       id="rect1"
       style="fill:#ffffff;stroke:none;stroke-width:2.76199;stroke-miterlimit:13921.8"
       d="M 0,0.02997233 V 47.029687 H 100.0001 V 0.02997233 Z M 38.396623,43.551864 c 0.03068,-6.29e-4 0.06356,5.49e-4 0.0987,0.0041 0.205489,0.02097 0.406456,0.07568 0.607715,0.120923 0.259156,0.05961 0.515592,0.129643 0.773079,0.195853 0.02659,0.0067 0.05299,0.01294 0.07958,0.01964 0.548198,0.137246 0.409686,0.691295 -0.138493,0.553972 -0.02777,-0.007 -0.05543,-0.01367 -0.0832,-0.02067 -0.251819,-0.06482 -0.502593,-0.133279 -0.756026,-0.191719 -0.160714,-0.03613 -0.321582,-0.07316 -0.482658,-0.106971 -0.518502,-0.108821 -0.558911,-0.565731 -0.0987,-0.575158 z" /><circle
       style="fill:#f2f2f2;stroke:#ca567d;stroke-width:0.231965;stroke-opacity:1"
       id="path147"
       cx="50.00005"
       cy="23.529829"
       r="16.5" /></g></svg>
