<svg xmlns="http://www.w3.org/2000/svg" width="246.2388888888889mm" height="192.26388888888889mm" viewBox="0 0 698 545">
<defs>
<clipPath id="clip-0">
<path clip-rule="nonzero" d="M 555.257812 281.035156 L 555.902344 281.035156 L 555.902344 310.105469 L 555.257812 310.105469 Z M 555.257812 281.035156 " />
</clipPath>
<clipPath id="clip-1">
<path clip-rule="nonzero" d="M 589.050781 276.113281 L 589.5625 276.113281 L 589.5625 311.074219 L 589.050781 311.074219 Z M 589.050781 276.113281 " />
</clipPath>
<clipPath id="clip-2">
<path clip-rule="nonzero" d="M 563.421875 318 L 581.320312 318 L 581.320312 318.464844 L 563.421875 318.464844 Z M 563.421875 318 " />
</clipPath>
<clipPath id="clip-3">
<path clip-rule="nonzero" d="M 555.363281 309.671875 L 563.851562 309.671875 L 563.851562 318.464844 L 555.363281 318.464844 Z M 555.363281 309.671875 " />
</clipPath>
<clipPath id="clip-4">
<path clip-rule="nonzero" d="M 580.882812 310.648438 L 589.582031 310.648438 L 589.582031 318.601562 L 580.882812 318.601562 Z M 580.882812 310.648438 " />
</clipPath>
<clipPath id="clip-5">
<path clip-rule="nonzero" d="M 556.769531 267.683594 L 564.664062 267.683594 L 564.664062 270.734375 L 556.769531 270.734375 Z M 556.769531 267.683594 " />
</clipPath>
<clipPath id="clip-6">
<path clip-rule="nonzero" d="M 579.765625 267.792969 L 589.582031 267.792969 L 589.582031 276.519531 L 579.765625 276.519531 Z M 579.765625 267.792969 " />
</clipPath>
<clipPath id="clip-7">
<path clip-rule="nonzero" d="M 568.292969 254.992188 L 576.503906 254.992188 L 576.503906 262.332031 L 568.292969 262.332031 Z M 568.292969 254.992188 " />
</clipPath>
<clipPath id="clip-8">
<path clip-rule="nonzero" d="M 564.222656 261.507812 L 570.046875 261.507812 L 570.046875 268.199219 L 564.222656 268.199219 Z M 564.222656 261.507812 " />
</clipPath>
<clipPath id="clip-9">
<path clip-rule="nonzero" d="M 574.628906 261.863281 L 580.199219 261.863281 L 580.199219 268.332031 L 574.628906 268.332031 Z M 574.628906 261.863281 " />
</clipPath>
<clipPath id="clip-10">
<path clip-rule="nonzero" d="M 564.660156 278.644531 L 565.847656 278.644531 L 565.847656 279.835938 L 564.660156 279.835938 Z M 564.660156 278.644531 " />
</clipPath>
<clipPath id="clip-11">
<path clip-rule="nonzero" d="M 565.738281 279.324219 L 566.277344 279.324219 L 566.277344 279.871094 L 565.738281 279.871094 Z M 565.738281 279.324219 " />
</clipPath>
<clipPath id="clip-12">
<path clip-rule="nonzero" d="M 568.601562 278.53125 L 569.238281 278.53125 L 569.238281 279.203125 L 568.601562 279.203125 Z M 568.601562 278.53125 " />
</clipPath>
<clipPath id="clip-13">
<path clip-rule="nonzero" d="M 569.128906 278.570312 L 570.394531 278.570312 L 570.394531 279.777344 L 569.128906 279.777344 Z M 569.128906 278.570312 " />
</clipPath>
<clipPath id="clip-14">
<path clip-rule="nonzero" d="M 570.304688 278.511719 L 571.492188 278.511719 L 571.492188 279.777344 L 570.304688 279.777344 Z M 570.304688 278.511719 " />
</clipPath>
<clipPath id="clip-15">
<path clip-rule="nonzero" d="M 571.402344 278.511719 L 572.671875 278.511719 L 572.671875 279.726562 L 571.402344 279.726562 Z M 571.402344 278.511719 " />
</clipPath>
<clipPath id="clip-16">
<path clip-rule="nonzero" d="M 572.582031 278.472656 L 573.777344 278.472656 L 573.777344 279.726562 L 572.582031 279.726562 Z M 572.582031 278.472656 " />
</clipPath>
<clipPath id="clip-17">
<path clip-rule="nonzero" d="M 573.6875 278.472656 L 574.949219 278.472656 L 574.949219 279.671875 L 573.6875 279.671875 Z M 573.6875 278.472656 " />
</clipPath>
<clipPath id="clip-18">
<path clip-rule="nonzero" d="M 574.863281 278.421875 L 576.082031 278.421875 L 576.082031 279.671875 L 574.863281 279.671875 Z M 574.863281 278.421875 " />
</clipPath>
<clipPath id="clip-19">
<path clip-rule="nonzero" d="M 576 278.421875 L 577.246094 278.421875 L 577.246094 279.625 L 576 279.625 Z M 576 278.421875 " />
</clipPath>
<clipPath id="clip-20">
<path clip-rule="nonzero" d="M 577.179688 278.460938 L 578.378906 278.460938 L 578.378906 279.632812 L 577.179688 279.632812 Z M 577.179688 278.460938 " />
</clipPath>
<clipPath id="clip-21">
<path clip-rule="nonzero" d="M 578.296875 278.460938 L 579.46875 278.460938 L 579.46875 279.65625 L 578.296875 279.65625 Z M 578.296875 278.460938 " />
</clipPath>
<clipPath id="clip-22">
<path clip-rule="nonzero" d="M 579.382812 278.484375 L 580.5625 278.484375 L 580.5625 279.65625 L 579.382812 279.65625 Z M 579.382812 278.484375 " />
</clipPath>
<clipPath id="clip-23">
<path clip-rule="nonzero" d="M 580.472656 278.484375 L 581.652344 278.484375 L 581.652344 279.6875 L 580.472656 279.6875 Z M 580.472656 278.484375 " />
</clipPath>
<clipPath id="clip-24">
<path clip-rule="nonzero" d="M 581.566406 278.527344 L 582.75 278.527344 L 582.75 279.6875 L 581.566406 279.6875 Z M 581.566406 278.527344 " />
</clipPath>
<clipPath id="clip-25">
<path clip-rule="nonzero" d="M 582.664062 278.527344 L 583.835938 278.527344 L 583.835938 279.714844 L 582.664062 279.714844 Z M 582.664062 278.527344 " />
</clipPath>
<clipPath id="clip-26">
<path clip-rule="nonzero" d="M 583.75 278.554688 L 584.964844 278.554688 L 584.964844 279.714844 L 583.75 279.714844 Z M 583.75 278.554688 " />
</clipPath>
<clipPath id="clip-27">
<path clip-rule="nonzero" d="M 584.878906 278.554688 L 586.035156 278.554688 L 586.035156 279.746094 L 584.878906 279.746094 Z M 584.878906 278.554688 " />
</clipPath>
<clipPath id="clip-28">
<path clip-rule="nonzero" d="M 559.460938 304.636719 L 560.65625 304.636719 L 560.65625 305.835938 L 559.460938 305.835938 Z M 559.460938 304.636719 " />
</clipPath>
<clipPath id="clip-29">
<path clip-rule="nonzero" d="M 560.570312 304.640625 L 561.75 304.640625 L 561.75 305.832031 L 560.570312 305.832031 Z M 560.570312 304.640625 " />
</clipPath>
<clipPath id="clip-30">
<path clip-rule="nonzero" d="M 561.664062 304.640625 L 562.855469 304.640625 L 562.855469 305.847656 L 561.664062 305.847656 Z M 561.664062 304.640625 " />
</clipPath>
<clipPath id="clip-31">
<path clip-rule="nonzero" d="M 562.773438 304.664062 L 563.957031 304.664062 L 563.957031 305.851562 L 562.773438 305.851562 Z M 562.773438 304.664062 " />
</clipPath>
<clipPath id="clip-32">
<path clip-rule="nonzero" d="M 563.871094 304.664062 L 565.0625 304.664062 L 565.0625 305.855469 L 563.871094 305.855469 Z M 563.871094 304.664062 " />
</clipPath>
<clipPath id="clip-33">
<path clip-rule="nonzero" d="M 564.980469 304.675781 L 566.191406 304.675781 L 566.191406 305.859375 L 564.980469 305.859375 Z M 564.980469 304.675781 " />
</clipPath>
<clipPath id="clip-34">
<path clip-rule="nonzero" d="M 566.105469 304.675781 L 567.28125 304.675781 L 567.28125 305.875 L 566.105469 305.875 Z M 566.105469 304.675781 " />
</clipPath>
<clipPath id="clip-35">
<path clip-rule="nonzero" d="M 567.222656 304.589844 L 568.433594 304.589844 L 568.433594 305.851562 L 567.222656 305.851562 Z M 567.222656 304.589844 " />
</clipPath>
<clipPath id="clip-36">
<path clip-rule="nonzero" d="M 568.34375 304.589844 L 569.613281 304.589844 L 569.613281 305.800781 L 568.34375 305.800781 Z M 568.34375 304.589844 " />
</clipPath>
<clipPath id="clip-37">
<path clip-rule="nonzero" d="M 569.523438 304.53125 L 570.710938 304.53125 L 570.710938 305.800781 L 569.523438 305.800781 Z M 569.523438 304.53125 " />
</clipPath>
<clipPath id="clip-38">
<path clip-rule="nonzero" d="M 570.621094 304.53125 L 571.886719 304.53125 L 571.886719 305.746094 L 570.621094 305.746094 Z M 570.621094 304.53125 " />
</clipPath>
<clipPath id="clip-39">
<path clip-rule="nonzero" d="M 571.796875 304.492188 L 572.992188 304.492188 L 572.992188 305.746094 L 571.796875 305.746094 Z M 571.796875 304.492188 " />
</clipPath>
<clipPath id="clip-40">
<path clip-rule="nonzero" d="M 572.90625 304.492188 L 574.167969 304.492188 L 574.167969 305.691406 L 572.90625 305.691406 Z M 572.90625 304.492188 " />
</clipPath>
<clipPath id="clip-41">
<path clip-rule="nonzero" d="M 574.082031 304.441406 L 575.300781 304.441406 L 575.300781 305.691406 L 574.082031 305.691406 Z M 574.082031 304.441406 " />
</clipPath>
<clipPath id="clip-42">
<path clip-rule="nonzero" d="M 575.214844 304.441406 L 576.460938 304.441406 L 576.460938 305.644531 L 575.214844 305.644531 Z M 575.214844 304.441406 " />
</clipPath>
<clipPath id="clip-43">
<path clip-rule="nonzero" d="M 576.398438 304.480469 L 577.597656 304.480469 L 577.597656 305.652344 L 576.398438 305.652344 Z M 576.398438 304.480469 " />
</clipPath>
<clipPath id="clip-44">
<path clip-rule="nonzero" d="M 577.515625 304.480469 L 578.6875 304.480469 L 578.6875 305.679688 L 577.515625 305.679688 Z M 577.515625 304.480469 " />
</clipPath>
<clipPath id="clip-45">
<path clip-rule="nonzero" d="M 578.601562 304.503906 L 579.777344 304.503906 L 579.777344 305.683594 L 578.601562 305.683594 Z M 578.601562 304.503906 " />
</clipPath>
<clipPath id="clip-46">
<path clip-rule="nonzero" d="M 579.691406 304.503906 L 580.871094 304.503906 L 580.871094 305.710938 L 579.691406 305.710938 Z M 579.691406 304.503906 " />
</clipPath>
<clipPath id="clip-47">
<path clip-rule="nonzero" d="M 580.78125 304.546875 L 581.96875 304.546875 L 581.96875 305.710938 L 580.78125 305.710938 Z M 580.78125 304.546875 " />
</clipPath>
<clipPath id="clip-48">
<path clip-rule="nonzero" d="M 581.882812 304.546875 L 583.054688 304.546875 L 583.054688 305.738281 L 581.882812 305.738281 Z M 581.882812 304.546875 " />
</clipPath>
<clipPath id="clip-49">
<path clip-rule="nonzero" d="M 582.96875 304.574219 L 584.179688 304.574219 L 584.179688 305.734375 L 582.96875 305.734375 Z M 582.96875 304.574219 " />
</clipPath>
<clipPath id="clip-50">
<path clip-rule="nonzero" d="M 584.09375 304.574219 L 585.253906 304.574219 L 585.253906 305.765625 L 584.09375 305.765625 Z M 584.09375 304.574219 " />
</clipPath>
<clipPath id="clip-51">
<path clip-rule="nonzero" d="M 584.988281 278.695312 L 586.195312 278.695312 L 586.195312 279.894531 L 584.988281 279.894531 Z M 584.988281 278.695312 " />
</clipPath>
<clipPath id="clip-52">
<path clip-rule="nonzero" d="M 585 279.808594 L 586.195312 279.808594 L 586.195312 281.023438 L 585 281.023438 Z M 585 279.808594 " />
</clipPath>
<clipPath id="clip-53">
<path clip-rule="nonzero" d="M 585 280.9375 L 586.207031 280.9375 L 586.207031 282.113281 L 585 282.113281 Z M 585 280.9375 " />
</clipPath>
<clipPath id="clip-54">
<path clip-rule="nonzero" d="M 585 282.027344 L 586.207031 282.027344 L 586.207031 283.238281 L 585 283.238281 Z M 585 282.027344 " />
</clipPath>
<clipPath id="clip-55">
<path clip-rule="nonzero" d="M 585 283.15625 L 586.199219 283.15625 L 586.199219 284.34375 L 585 284.34375 Z M 585 283.15625 " />
</clipPath>
<clipPath id="clip-56">
<path clip-rule="nonzero" d="M 585.007812 284.257812 L 586.199219 284.257812 L 586.199219 285.464844 L 585.007812 285.464844 Z M 585.007812 284.257812 " />
</clipPath>
<clipPath id="clip-57">
<path clip-rule="nonzero" d="M 585.007812 285.378906 L 586.207031 285.378906 L 586.207031 286.597656 L 585.007812 286.597656 Z M 585.007812 285.378906 " />
</clipPath>
<clipPath id="clip-58">
<path clip-rule="nonzero" d="M 585.007812 286.507812 L 586.207031 286.507812 L 586.207031 287.703125 L 585.007812 287.703125 Z M 585.007812 286.507812 " />
</clipPath>
<clipPath id="clip-59">
<path clip-rule="nonzero" d="M 585.027344 287.644531 L 586.308594 287.644531 L 586.308594 288.855469 L 585.027344 288.855469 Z M 585.027344 287.644531 " />
</clipPath>
<clipPath id="clip-60">
<path clip-rule="nonzero" d="M 585.101562 288.769531 L 586.308594 288.769531 L 586.308594 290.050781 L 585.101562 290.050781 Z M 585.101562 288.769531 " />
</clipPath>
<clipPath id="clip-61">
<path clip-rule="nonzero" d="M 585.101562 289.960938 L 586.382812 289.960938 L 586.382812 291.148438 L 585.101562 291.148438 Z M 585.101562 289.960938 " />
</clipPath>
<clipPath id="clip-62">
<path clip-rule="nonzero" d="M 585.164062 291.058594 L 586.382812 291.058594 L 586.382812 292.34375 L 585.164062 292.34375 Z M 585.164062 291.058594 " />
</clipPath>
<clipPath id="clip-63">
<path clip-rule="nonzero" d="M 585.164062 292.253906 L 586.4375 292.253906 L 586.4375 293.453125 L 585.164062 293.453125 Z M 585.164062 292.253906 " />
</clipPath>
<clipPath id="clip-64">
<path clip-rule="nonzero" d="M 585.238281 293.363281 L 586.4375 293.363281 L 586.4375 294.644531 L 585.238281 294.644531 Z M 585.238281 293.363281 " />
</clipPath>
<clipPath id="clip-65">
<path clip-rule="nonzero" d="M 585.238281 294.550781 L 586.507812 294.550781 L 586.507812 295.777344 L 585.238281 295.777344 Z M 585.238281 294.550781 " />
</clipPath>
<clipPath id="clip-66">
<path clip-rule="nonzero" d="M 585.300781 295.691406 L 586.507812 295.691406 L 586.507812 296.953125 L 585.300781 296.953125 Z M 585.300781 295.691406 " />
</clipPath>
<clipPath id="clip-67">
<path clip-rule="nonzero" d="M 585.296875 296.890625 L 586.480469 296.890625 L 586.480469 298.09375 L 585.296875 298.09375 Z M 585.296875 296.890625 " />
</clipPath>
<clipPath id="clip-68">
<path clip-rule="nonzero" d="M 585.285156 298.007812 L 586.480469 298.007812 L 586.480469 299.199219 L 585.285156 299.199219 Z M 585.285156 298.007812 " />
</clipPath>
<clipPath id="clip-69">
<path clip-rule="nonzero" d="M 585.285156 299.113281 L 586.472656 299.113281 L 586.472656 300.292969 L 585.285156 300.292969 Z M 585.285156 299.113281 " />
</clipPath>
<clipPath id="clip-70">
<path clip-rule="nonzero" d="M 585.269531 300.207031 L 586.472656 300.207031 L 586.472656 301.398438 L 585.269531 301.398438 Z M 585.269531 300.207031 " />
</clipPath>
<clipPath id="clip-71">
<path clip-rule="nonzero" d="M 585.269531 301.3125 L 586.449219 301.3125 L 586.449219 302.496094 L 585.269531 302.496094 Z M 585.269531 301.3125 " />
</clipPath>
<clipPath id="clip-72">
<path clip-rule="nonzero" d="M 585.261719 302.410156 L 586.449219 302.410156 L 586.449219 303.601562 L 585.261719 303.601562 Z M 585.261719 302.410156 " />
</clipPath>
<clipPath id="clip-73">
<path clip-rule="nonzero" d="M 585.261719 303.515625 L 586.4375 303.515625 L 586.4375 304.726562 L 585.261719 304.726562 Z M 585.261719 303.515625 " />
</clipPath>
<clipPath id="clip-74">
<path clip-rule="nonzero" d="M 585.242188 304.640625 L 586.4375 304.640625 L 586.4375 305.816406 L 585.242188 305.816406 Z M 585.242188 304.640625 " />
</clipPath>
<clipPath id="clip-75">
<path clip-rule="nonzero" d="M 559.371094 295.746094 L 560.558594 295.746094 L 560.558594 296.941406 L 559.371094 296.941406 Z M 559.371094 295.746094 " />
</clipPath>
<clipPath id="clip-76">
<path clip-rule="nonzero" d="M 559.359375 296.855469 L 560.558594 296.855469 L 560.558594 298.050781 L 559.359375 298.050781 Z M 559.359375 296.855469 " />
</clipPath>
<clipPath id="clip-77">
<path clip-rule="nonzero" d="M 559.359375 297.964844 L 560.550781 297.964844 L 560.550781 299.140625 L 559.359375 299.140625 Z M 559.359375 297.964844 " />
</clipPath>
<clipPath id="clip-78">
<path clip-rule="nonzero" d="M 559.34375 299.058594 L 560.550781 299.058594 L 560.550781 300.25 L 559.34375 300.25 Z M 559.34375 299.058594 " />
</clipPath>
<clipPath id="clip-79">
<path clip-rule="nonzero" d="M 559.34375 300.164062 L 560.527344 300.164062 L 560.527344 301.351562 L 559.34375 301.351562 Z M 559.34375 300.164062 " />
</clipPath>
<clipPath id="clip-80">
<path clip-rule="nonzero" d="M 559.335938 301.265625 L 560.527344 301.265625 L 560.527344 302.453125 L 559.335938 302.453125 Z M 559.335938 301.265625 " />
</clipPath>
<clipPath id="clip-81">
<path clip-rule="nonzero" d="M 559.335938 302.367188 L 560.511719 302.367188 L 560.511719 303.582031 L 559.335938 303.582031 Z M 559.335938 302.367188 " />
</clipPath>
<clipPath id="clip-82">
<path clip-rule="nonzero" d="M 559.476562 303.496094 L 560.511719 303.496094 L 560.511719 304.679688 L 559.476562 304.679688 Z M 559.476562 303.496094 " />
</clipPath>
<clipPath id="clip-83">
<path clip-rule="nonzero" d="M 563.808594 273.859375 L 567.25 273.859375 L 567.25 276.597656 L 563.808594 276.597656 Z M 563.808594 273.859375 " />
</clipPath>
<clipPath id="clip-84">
<path clip-rule="nonzero" d="M 566.957031 276.304688 L 568.621094 276.304688 L 568.621094 278.960938 L 566.957031 278.960938 Z M 566.957031 276.304688 " />
</clipPath>
<clipPath id="clip-85">
<path clip-rule="nonzero" d="M 568.292969 278.59375 L 569.605469 278.59375 L 569.605469 280.195312 L 568.292969 280.195312 Z M 568.292969 278.59375 " />
</clipPath>
<clipPath id="clip-86">
<path clip-rule="nonzero" d="M 568.886719 279.28125 L 570.238281 279.28125 L 570.238281 280.859375 L 568.886719 280.859375 Z M 568.886719 279.28125 " />
</clipPath>
<clipPath id="clip-87">
<path clip-rule="nonzero" d="M 569.726562 280.347656 L 570.792969 280.347656 L 570.792969 282.078125 L 569.726562 282.078125 Z M 569.726562 280.347656 " />
</clipPath>
<clipPath id="clip-88">
<path clip-rule="nonzero" d="M 565.507812 278.761719 L 570.710938 278.761719 L 570.710938 282.203125 L 565.507812 282.203125 Z M 565.507812 278.761719 " />
</clipPath>
<clipPath id="clip-89">
<path clip-rule="nonzero" d="M 564.386719 277.765625 L 565.800781 277.765625 L 565.800781 279.671875 L 564.386719 279.671875 Z M 564.386719 277.765625 " />
</clipPath>
<clipPath id="clip-90">
<path clip-rule="nonzero" d="M 564.496094 279.382812 L 568.96875 279.382812 L 568.96875 287.421875 L 564.496094 287.421875 Z M 564.496094 279.382812 " />
</clipPath>
<clipPath id="clip-91">
<path clip-rule="nonzero" d="M 568.429688 286.796875 L 570 286.796875 L 570 290.496094 L 568.429688 290.496094 Z M 568.429688 286.796875 " />
</clipPath>
<clipPath id="clip-92">
<path clip-rule="nonzero" d="M 563.175781 283.1875 L 567.511719 283.1875 L 567.511719 288.878906 L 563.175781 288.878906 Z M 563.175781 283.1875 " />
</clipPath>
<clipPath id="clip-93">
<path clip-rule="nonzero" d="M 567.21875 288.550781 L 568.375 288.550781 L 568.375 290 L 567.21875 290 Z M 567.21875 288.550781 " />
</clipPath>
<clipPath id="clip-94">
<path clip-rule="nonzero" d="M 567.976562 289.472656 L 569.140625 289.472656 L 569.140625 290.570312 L 567.976562 290.570312 Z M 567.976562 289.472656 " />
</clipPath>
<clipPath id="clip-95">
<path clip-rule="nonzero" d="M 563.800781 287.519531 L 567.890625 287.519531 L 567.890625 290.433594 L 563.800781 290.433594 Z M 563.800781 287.519531 " />
</clipPath>
<clipPath id="clip-96">
<path clip-rule="nonzero" d="M 561.15625 284 L 564.097656 284 L 564.097656 287.8125 L 561.15625 287.8125 Z M 561.15625 284 " />
</clipPath>
<clipPath id="clip-97">
<path clip-rule="nonzero" d="M 561.519531 287.414062 L 565.578125 287.414062 L 565.578125 290.164062 L 561.519531 290.164062 Z M 561.519531 287.414062 " />
</clipPath>
<clipPath id="clip-98">
<path clip-rule="nonzero" d="M 558.867188 284.234375 L 561.8125 284.234375 L 561.8125 287.707031 L 558.867188 287.707031 Z M 558.867188 284.234375 " />
</clipPath>
<clipPath id="clip-99">
<path clip-rule="nonzero" d="M 557.519531 285.042969 L 561.992188 285.042969 L 561.992188 288.820312 L 557.519531 288.820312 Z M 557.519531 285.042969 " />
</clipPath>
<clipPath id="clip-100">
<path clip-rule="nonzero" d="M 553.96875 276.722656 L 557.816406 276.722656 L 557.816406 285.382812 L 553.96875 285.382812 Z M 553.96875 276.722656 " />
</clipPath>
<clipPath id="clip-101">
<path clip-rule="nonzero" d="M 551.203125 273.746094 L 554.261719 273.746094 L 554.261719 277.015625 L 551.203125 277.015625 Z M 551.203125 273.746094 " />
</clipPath>
<clipPath id="clip-102">
<path clip-rule="nonzero" d="M 550.058594 272.789062 L 551.496094 272.789062 L 551.496094 274.039062 L 550.058594 274.039062 Z M 550.058594 272.789062 " />
</clipPath>
<clipPath id="clip-103">
<path clip-rule="nonzero" d="M 554.761719 268.265625 L 564.101562 268.265625 L 564.101562 274.144531 L 554.761719 274.144531 Z M 554.761719 268.265625 " />
</clipPath>
<clipPath id="clip-104">
<path clip-rule="nonzero" d="M 559 281.507812 L 570.773438 281.507812 L 570.773438 291.734375 L 559 291.734375 Z M 559 281.507812 " />
</clipPath>
<clipPath id="clip-105">
<path clip-rule="nonzero" d="M 570.46875 287.988281 L 572.46875 287.988281 L 572.46875 290.949219 L 570.46875 290.949219 Z M 570.46875 287.988281 " />
</clipPath>
<clipPath id="clip-106">
<path clip-rule="nonzero" d="M 570.53125 281.511719 L 572.488281 281.511719 L 572.488281 283.9375 L 570.53125 283.9375 Z M 570.53125 281.511719 " />
</clipPath>
<clipPath id="clip-107">
<path clip-rule="nonzero" d="M 572.269531 283.734375 L 572.488281 283.734375 L 572.488281 290.949219 L 572.269531 290.949219 Z M 572.269531 283.734375 " />
</clipPath>
<clipPath id="clip-108">
<path clip-rule="nonzero" d="M 562.171875 290.746094 L 572.46875 290.746094 L 572.46875 294.144531 L 562.171875 294.144531 Z M 562.171875 290.746094 " />
</clipPath>
<clipPath id="clip-109">
<path clip-rule="nonzero" d="M 559 291.535156 L 560.210938 291.535156 L 560.210938 292.859375 L 559 292.859375 Z M 559 291.535156 " />
</clipPath>
<clipPath id="clip-110">
<path clip-rule="nonzero" d="M 562.101562 289.648438 L 562.90625 289.648438 L 562.90625 290.425781 L 562.101562 290.425781 Z M 562.101562 289.648438 " />
</clipPath>
<clipPath id="clip-111">
<path clip-rule="nonzero" d="M 568.023438 283.15625 L 568.703125 283.15625 L 568.703125 283.828125 L 568.023438 283.828125 Z M 568.023438 283.15625 " />
</clipPath>
<clipPath id="clip-112">
<path clip-rule="nonzero" d="M 568.871094 282.886719 L 569.238281 282.886719 L 569.238281 283.277344 L 568.871094 283.277344 Z M 568.871094 282.886719 " />
</clipPath>
<clipPath id="clip-113">
<path clip-rule="nonzero" d="M 568.273438 285.652344 L 568.835938 285.652344 L 568.835938 286.21875 L 568.273438 286.21875 Z M 568.273438 285.652344 " />
</clipPath>
<clipPath id="clip-114">
<path clip-rule="nonzero" d="M 568.859375 286.617188 L 569.914062 286.617188 L 569.914062 287.671875 L 568.859375 287.671875 Z M 568.859375 286.617188 " />
</clipPath>
<clipPath id="clip-115">
<path clip-rule="nonzero" d="M 570.046875 285.445312 L 570.695312 285.445312 L 570.695312 286.121094 L 570.046875 286.121094 Z M 570.046875 285.445312 " />
</clipPath>
<clipPath id="clip-116">
<path clip-rule="nonzero" d="M 570.21875 284.425781 L 570.621094 284.425781 L 570.621094 284.910156 L 570.21875 284.910156 Z M 570.21875 284.425781 " />
</clipPath>
<clipPath id="clip-117">
<path clip-rule="nonzero" d="M 559.335938 287.714844 L 559.808594 287.714844 L 559.808594 288.476562 L 559.335938 288.476562 Z M 559.335938 287.714844 " />
</clipPath>
<clipPath id="clip-118">
<path clip-rule="nonzero" d="M 561.738281 291.6875 L 562.367188 291.6875 L 562.367188 292.320312 L 561.738281 292.320312 Z M 561.738281 291.6875 " />
</clipPath>
<clipPath id="clip-119">
<path clip-rule="nonzero" d="M 563.714844 291 L 564.386719 291 L 564.386719 291.644531 L 563.714844 291.644531 Z M 563.714844 291 " />
</clipPath>
<clipPath id="clip-120">
<path clip-rule="nonzero" d="M 565.234375 290.164062 L 565.988281 290.164062 L 565.988281 290.699219 L 565.234375 290.699219 Z M 565.234375 290.164062 " />
</clipPath>
<clipPath id="clip-121">
<path clip-rule="nonzero" d="M 566.457031 290.4375 L 567.082031 290.4375 L 567.082031 291.105469 L 566.457031 291.105469 Z M 566.457031 290.4375 " />
</clipPath>
<clipPath id="clip-122">
<path clip-rule="nonzero" d="M 567.15625 290.03125 L 567.84375 290.03125 L 567.84375 290.554688 L 567.15625 290.554688 Z M 567.15625 290.03125 " />
</clipPath>
<clipPath id="clip-123">
<path clip-rule="nonzero" d="M 569.859375 288.640625 L 570.363281 288.640625 L 570.363281 289.148438 L 569.859375 289.148438 Z M 569.859375 288.640625 " />
</clipPath>
<clipPath id="clip-124">
<path clip-rule="nonzero" d="M 569.027344 290.613281 L 569.554688 290.613281 L 569.554688 291.140625 L 569.027344 291.140625 Z M 569.027344 290.613281 " />
</clipPath>
<clipPath id="clip-125">
<path clip-rule="nonzero" d="M 568.023438 291.113281 L 568.5625 291.113281 L 568.5625 291.71875 L 568.023438 291.71875 Z M 568.023438 291.113281 " />
</clipPath>
<clipPath id="clip-126">
<path clip-rule="nonzero" d="M 566.191406 291.25 L 567 291.25 L 567 291.914062 L 566.191406 291.914062 Z M 566.191406 291.25 " />
</clipPath>
<clipPath id="clip-127">
<path clip-rule="nonzero" d="M 564.425781 292.1875 L 565.085938 292.1875 L 565.085938 292.652344 L 564.425781 292.652344 Z M 564.425781 292.1875 " />
</clipPath>
<clipPath id="clip-128">
<path clip-rule="nonzero" d="M 570.894531 290.457031 L 571.515625 290.457031 L 571.515625 291.082031 L 570.894531 291.082031 Z M 570.894531 290.457031 " />
</clipPath>
<clipPath id="clip-129">
<path clip-rule="nonzero" d="M 570.855469 287.605469 L 571.328125 287.605469 L 571.328125 288.113281 L 570.855469 288.113281 Z M 570.855469 287.605469 " />
</clipPath>
<clipPath id="clip-130">
<path clip-rule="nonzero" d="M 571.4375 288.007812 L 572.066406 288.007812 L 572.066406 288.507812 L 571.4375 288.507812 Z M 571.4375 288.007812 " />
</clipPath>
<clipPath id="clip-131">
<path clip-rule="nonzero" d="M 571.527344 286.796875 L 571.933594 286.796875 L 571.933594 287.199219 L 571.527344 287.199219 Z M 571.527344 286.796875 " />
</clipPath>
<clipPath id="clip-132">
<path clip-rule="nonzero" d="M 571.800781 285.410156 L 572.167969 285.410156 L 572.167969 285.921875 L 571.800781 285.921875 Z M 571.800781 285.410156 " />
</clipPath>
<clipPath id="clip-133">
<path clip-rule="nonzero" d="M 571.300781 284.683594 L 571.933594 284.683594 L 571.933594 285.3125 L 571.300781 285.3125 Z M 571.300781 284.683594 " />
</clipPath>
<clipPath id="clip-134">
<path clip-rule="nonzero" d="M 571.769531 284 L 572.234375 284 L 572.234375 284.453125 L 571.769531 284.453125 Z M 571.769531 284 " />
</clipPath>
<clipPath id="clip-135">
<path clip-rule="nonzero" d="M 570.902344 283.460938 L 571.300781 283.460938 L 571.300781 284.15625 L 570.902344 284.15625 Z M 570.902344 283.460938 " />
</clipPath>
<clipPath id="clip-136">
<path clip-rule="nonzero" d="M 570.933594 282.75 L 571.390625 282.75 L 571.390625 283.15625 L 570.933594 283.15625 Z M 570.933594 282.75 " />
</clipPath>
<clipPath id="clip-137">
<path clip-rule="nonzero" d="M 570.605469 284.6875 L 571 284.6875 L 571 285.230469 L 570.605469 285.230469 Z M 570.605469 284.6875 " />
</clipPath>
<clipPath id="clip-138">
<path clip-rule="nonzero" d="M 570.804688 286.054688 L 571.320312 286.054688 L 571.320312 286.726562 L 570.804688 286.726562 Z M 570.804688 286.054688 " />
</clipPath>
<clipPath id="clip-139">
<path clip-rule="nonzero" d="M 571.300781 285.605469 L 571.621094 285.605469 L 571.621094 286.066406 L 571.300781 286.066406 Z M 571.300781 285.605469 " />
</clipPath>
<clipPath id="clip-140">
<path clip-rule="nonzero" d="M 571.339844 288.75 L 571.851562 288.75 L 571.851562 289.359375 L 571.339844 289.359375 Z M 571.339844 288.75 " />
</clipPath>
<clipPath id="clip-141">
<path clip-rule="nonzero" d="M 571.820312 289.492188 L 572.199219 289.492188 L 572.199219 289.863281 L 571.820312 289.863281 Z M 571.820312 289.492188 " />
</clipPath>
<clipPath id="clip-142">
<path clip-rule="nonzero" d="M 562.824219 290.582031 L 563.300781 290.582031 L 563.300781 290.972656 L 562.824219 290.972656 Z M 562.824219 290.582031 " />
</clipPath>
<clipPath id="clip-143">
<path clip-rule="nonzero" d="M 564.046875 290.394531 L 564.488281 290.394531 L 564.488281 290.835938 L 564.046875 290.835938 Z M 564.046875 290.394531 " />
</clipPath>
<clipPath id="clip-144">
<path clip-rule="nonzero" d="M 562.65625 291.785156 L 563.410156 291.785156 L 563.410156 292.320312 L 562.65625 292.320312 Z M 562.65625 291.785156 " />
</clipPath>
<clipPath id="clip-145">
<path clip-rule="nonzero" d="M 560.480469 291.242188 L 561.113281 291.242188 L 561.113281 291.871094 L 560.480469 291.871094 Z M 560.480469 291.242188 " />
</clipPath>
<clipPath id="clip-146">
<path clip-rule="nonzero" d="M 560.785156 292.253906 L 561.410156 292.253906 L 561.410156 292.796875 L 560.785156 292.796875 Z M 560.785156 292.253906 " />
</clipPath>
<clipPath id="clip-147">
<path clip-rule="nonzero" d="M 566.007812 289.585938 L 566.519531 289.585938 L 566.519531 289.921875 L 566.007812 289.921875 Z M 566.007812 289.585938 " />
</clipPath>
<clipPath id="clip-148">
<path clip-rule="nonzero" d="M 563.265625 292.347656 L 563.777344 292.347656 L 563.777344 292.859375 L 563.265625 292.859375 Z M 563.265625 292.347656 " />
</clipPath>
<clipPath id="clip-149">
<path clip-rule="nonzero" d="M 573.582031 285.539062 L 574.40625 285.539062 L 574.40625 286.253906 L 573.582031 286.253906 Z M 573.582031 285.539062 " />
</clipPath>
<clipPath id="clip-150">
<path clip-rule="nonzero" d="M 573.550781 286.292969 L 574.222656 286.292969 L 574.222656 286.914062 L 573.550781 286.914062 Z M 573.550781 286.292969 " />
</clipPath>
<clipPath id="clip-151">
<path clip-rule="nonzero" d="M 574.1875 286.140625 L 574.628906 286.140625 L 574.628906 286.664062 L 574.1875 286.664062 Z M 574.1875 286.140625 " />
</clipPath>
<clipPath id="clip-152">
<path clip-rule="nonzero" d="M 559.269531 292.589844 L 560.886719 292.589844 L 560.886719 293.898438 L 559.269531 293.898438 Z M 559.269531 292.589844 " />
</clipPath>
<clipPath id="clip-153">
<path clip-rule="nonzero" d="M 558.929688 293.296875 L 559.761719 293.296875 L 559.761719 293.773438 L 558.929688 293.773438 Z M 558.929688 293.296875 " />
</clipPath>
<clipPath id="clip-154">
<path clip-rule="nonzero" d="M 564.316406 294.484375 L 564.925781 294.484375 L 564.925781 295.113281 L 564.316406 295.113281 Z M 564.316406 294.484375 " />
</clipPath>
<clipPath id="clip-155">
<path clip-rule="nonzero" d="M 564.117188 294.070312 L 564.878906 294.070312 L 564.878906 294.695312 L 564.117188 294.695312 Z M 564.117188 294.070312 " />
</clipPath>
<clipPath id="clip-156">
<path clip-rule="nonzero" d="M 562.367188 292.886719 L 563.277344 292.886719 L 563.277344 293.667969 L 562.367188 293.667969 Z M 562.367188 292.886719 " />
</clipPath>
<clipPath id="clip-157">
<path clip-rule="nonzero" d="M 565.332031 293.324219 L 566.140625 293.324219 L 566.140625 294.210938 L 565.332031 294.210938 Z M 565.332031 293.324219 " />
</clipPath>
<clipPath id="clip-158">
<path clip-rule="nonzero" d="M 566.007812 293.34375 L 566.679688 293.34375 L 566.679688 294.113281 L 566.007812 294.113281 Z M 566.007812 293.34375 " />
</clipPath>
<clipPath id="clip-159">
<path clip-rule="nonzero" d="M 565.332031 292.757812 L 566.277344 292.757812 L 566.277344 293.667969 L 565.332031 293.667969 Z M 565.332031 292.757812 " />
</clipPath>
<clipPath id="clip-160">
<path clip-rule="nonzero" d="M 559.019531 289.535156 L 559.609375 289.535156 L 559.609375 290.261719 L 559.019531 290.261719 Z M 559.019531 289.535156 " />
</clipPath>
<clipPath id="clip-161">
<path clip-rule="nonzero" d="M 559.328125 292.59375 L 561 292.59375 L 561 293.9375 L 559.328125 293.9375 Z M 559.328125 292.59375 " />
</clipPath>
<clipPath id="clip-162">
<path clip-rule="nonzero" d="M 560.75 292.726562 L 562.4375 292.726562 L 562.4375 294.425781 L 560.75 294.425781 Z M 560.75 292.726562 " />
</clipPath>
<clipPath id="clip-163">
<path clip-rule="nonzero" d="M 562.234375 292.746094 L 563.417969 292.746094 L 563.417969 293.851562 L 562.234375 293.851562 Z M 562.234375 292.746094 " />
</clipPath>
<clipPath id="clip-164">
<path clip-rule="nonzero" d="M 563.042969 293.128906 L 564.386719 293.128906 L 564.386719 294.523438 L 563.042969 294.523438 Z M 563.042969 293.128906 " />
</clipPath>
<clipPath id="clip-165">
<path clip-rule="nonzero" d="M 563.984375 293.671875 L 564.980469 293.671875 L 564.980469 294.746094 L 563.984375 294.746094 Z M 563.984375 293.671875 " />
</clipPath>
<clipPath id="clip-166">
<path clip-rule="nonzero" d="M 563 294.339844 L 564.660156 294.339844 L 564.660156 295.546875 L 563 295.546875 Z M 563 294.339844 " />
</clipPath>
<clipPath id="clip-167">
<path clip-rule="nonzero" d="M 562.027344 294.476562 L 563.445312 294.476562 L 563.445312 295.953125 L 562.027344 295.953125 Z M 562.027344 294.476562 " />
</clipPath>
<clipPath id="clip-168">
<path clip-rule="nonzero" d="M 561.457031 294.8125 L 562.367188 294.8125 L 562.367188 295.773438 L 561.457031 295.773438 Z M 561.457031 294.8125 " />
</clipPath>
<clipPath id="clip-169">
<path clip-rule="nonzero" d="M 559.640625 294.753906 L 561.949219 294.753906 L 561.949219 296.230469 L 559.640625 296.230469 Z M 559.640625 294.753906 " />
</clipPath>
<clipPath id="clip-170">
<path clip-rule="nonzero" d="M 558.730469 294.207031 L 559.601562 294.207031 L 559.601562 295.144531 L 558.730469 295.144531 Z M 558.730469 294.207031 " />
</clipPath>
<clipPath id="clip-171">
<path clip-rule="nonzero" d="M 558.730469 293.265625 L 559.898438 293.265625 L 559.898438 294.476562 L 558.730469 294.476562 Z M 558.730469 293.265625 " />
</clipPath>
<clipPath id="clip-172">
<path clip-rule="nonzero" d="M 565.164062 293.128906 L 566.132812 293.128906 L 566.132812 294.300781 L 565.164062 294.300781 Z M 565.164062 293.128906 " />
</clipPath>
<clipPath id="clip-173">
<path clip-rule="nonzero" d="M 565.871094 293.199219 L 566.785156 293.199219 L 566.785156 294.210938 L 565.871094 294.210938 Z M 565.871094 293.199219 " />
</clipPath>
<clipPath id="clip-174">
<path clip-rule="nonzero" d="M 573.46875 286.15625 L 574.359375 286.15625 L 574.359375 286.992188 L 573.46875 286.992188 Z M 573.46875 286.15625 " />
</clipPath>
<clipPath id="clip-175">
<path clip-rule="nonzero" d="M 574.199219 285.984375 L 574.761719 285.984375 L 574.761719 286.738281 L 574.199219 286.738281 Z M 574.199219 285.984375 " />
</clipPath>
<clipPath id="clip-176">
<path clip-rule="nonzero" d="M 573.59375 285.3125 L 574.628906 285.3125 L 574.628906 286.394531 L 573.59375 286.394531 Z M 573.59375 285.3125 " />
</clipPath>
<clipPath id="clip-177">
<path clip-rule="nonzero" d="M 559.089844 294.746094 L 559.984375 294.746094 L 559.984375 295.777344 L 559.089844 295.777344 Z M 559.089844 294.746094 " />
</clipPath>
<clipPath id="clip-178">
<path clip-rule="nonzero" d="M 595.773438 282.078125 L 596.390625 282.078125 L 596.390625 311.136719 L 595.773438 311.136719 Z M 595.773438 282.078125 " />
</clipPath>
<clipPath id="clip-179">
<path clip-rule="nonzero" d="M 629.507812 277.148438 L 630.128906 277.148438 L 630.128906 308.222656 L 629.507812 308.222656 Z M 629.507812 277.148438 " />
</clipPath>
<clipPath id="clip-180">
<path clip-rule="nonzero" d="M 603.910156 319.023438 L 621.808594 319.023438 L 621.808594 319.507812 L 603.910156 319.507812 Z M 603.910156 319.023438 " />
</clipPath>
<clipPath id="clip-181">
<path clip-rule="nonzero" d="M 595.835938 310.703125 L 604.347656 310.703125 L 604.347656 319.542969 L 595.835938 319.542969 Z M 595.835938 310.703125 " />
</clipPath>
<clipPath id="clip-182">
<path clip-rule="nonzero" d="M 621.371094 316.230469 L 629.183594 316.230469 L 629.183594 319.542969 L 621.371094 319.542969 Z M 621.371094 316.230469 " />
</clipPath>
<clipPath id="clip-183">
<path clip-rule="nonzero" d="M 597.257812 268.714844 L 605.148438 268.714844 L 605.148438 271.765625 L 597.257812 271.765625 Z M 597.257812 268.714844 " />
</clipPath>
<clipPath id="clip-184">
<path clip-rule="nonzero" d="M 620.253906 268.875 L 630.128906 268.875 L 630.128906 277.554688 L 620.253906 277.554688 Z M 620.253906 268.875 " />
</clipPath>
<clipPath id="clip-185">
<path clip-rule="nonzero" d="M 608.839844 256 L 616.996094 256 L 616.996094 263.367188 L 608.839844 263.367188 Z M 608.839844 256 " />
</clipPath>
<clipPath id="clip-186">
<path clip-rule="nonzero" d="M 604.710938 262.542969 L 610.59375 262.542969 L 610.59375 269.273438 L 604.710938 269.273438 Z M 604.710938 262.542969 " />
</clipPath>
<clipPath id="clip-187">
<path clip-rule="nonzero" d="M 615.039062 262.835938 L 620.691406 262.835938 L 620.691406 269.390625 L 615.039062 269.390625 Z M 615.039062 262.835938 " />
</clipPath>
<clipPath id="clip-188">
<path clip-rule="nonzero" d="M 605.144531 279.675781 L 606.335938 279.675781 L 606.335938 280.867188 L 605.144531 280.867188 Z M 605.144531 279.675781 " />
</clipPath>
<clipPath id="clip-189">
<path clip-rule="nonzero" d="M 609.617188 279.601562 L 610.882812 279.601562 L 610.882812 280.8125 L 609.617188 280.8125 Z M 609.617188 279.601562 " />
</clipPath>
<clipPath id="clip-190">
<path clip-rule="nonzero" d="M 610.792969 279.546875 L 611.976562 279.546875 L 611.976562 280.8125 L 610.792969 280.8125 Z M 610.792969 279.546875 " />
</clipPath>
<clipPath id="clip-191">
<path clip-rule="nonzero" d="M 611.890625 279.546875 L 613.160156 279.546875 L 613.160156 280.761719 L 611.890625 280.761719 Z M 611.890625 279.546875 " />
</clipPath>
<clipPath id="clip-192">
<path clip-rule="nonzero" d="M 613.070312 279.507812 L 614.265625 279.507812 L 614.265625 280.761719 L 613.070312 280.761719 Z M 613.070312 279.507812 " />
</clipPath>
<clipPath id="clip-193">
<path clip-rule="nonzero" d="M 614.175781 279.507812 L 615.4375 279.507812 L 615.4375 280.707031 L 614.175781 280.707031 Z M 614.175781 279.507812 " />
</clipPath>
<clipPath id="clip-194">
<path clip-rule="nonzero" d="M 615.347656 279.453125 L 616.570312 279.453125 L 616.570312 280.707031 L 615.347656 280.707031 Z M 615.347656 279.453125 " />
</clipPath>
<clipPath id="clip-195">
<path clip-rule="nonzero" d="M 616.480469 279.453125 L 617.734375 279.453125 L 617.734375 280.660156 L 616.480469 280.660156 Z M 616.480469 279.453125 " />
</clipPath>
<clipPath id="clip-196">
<path clip-rule="nonzero" d="M 617.671875 279.496094 L 618.867188 279.496094 L 618.867188 280.667969 L 617.671875 280.667969 Z M 617.671875 279.496094 " />
</clipPath>
<clipPath id="clip-197">
<path clip-rule="nonzero" d="M 618.785156 279.496094 L 619.957031 279.496094 L 619.957031 280.695312 L 618.785156 280.695312 Z M 618.785156 279.496094 " />
</clipPath>
<clipPath id="clip-198">
<path clip-rule="nonzero" d="M 619.871094 279.519531 L 621.050781 279.519531 L 621.050781 280.695312 L 619.871094 280.695312 Z M 619.871094 279.519531 " />
</clipPath>
<clipPath id="clip-199">
<path clip-rule="nonzero" d="M 620.96875 279.519531 L 622.140625 279.519531 L 622.140625 280.722656 L 620.96875 280.722656 Z M 620.96875 279.519531 " />
</clipPath>
<clipPath id="clip-200">
<path clip-rule="nonzero" d="M 622.054688 279.558594 L 623.238281 279.558594 L 623.238281 280.726562 L 622.054688 280.726562 Z M 622.054688 279.558594 " />
</clipPath>
<clipPath id="clip-201">
<path clip-rule="nonzero" d="M 623.152344 279.558594 L 624.324219 279.558594 L 624.324219 280.75 L 623.152344 280.75 Z M 623.152344 279.558594 " />
</clipPath>
<clipPath id="clip-202">
<path clip-rule="nonzero" d="M 624.238281 279.585938 L 625.453125 279.585938 L 625.453125 280.75 L 624.238281 280.75 Z M 624.238281 279.585938 " />
</clipPath>
<clipPath id="clip-203">
<path clip-rule="nonzero" d="M 625.367188 279.585938 L 626.523438 279.585938 L 626.523438 280.78125 L 625.367188 280.78125 Z M 625.367188 279.585938 " />
</clipPath>
<clipPath id="clip-204">
<path clip-rule="nonzero" d="M 599.949219 305.667969 L 601.144531 305.667969 L 601.144531 306.871094 L 599.949219 306.871094 Z M 599.949219 305.667969 " />
</clipPath>
<clipPath id="clip-205">
<path clip-rule="nonzero" d="M 601.058594 305.671875 L 602.238281 305.671875 L 602.238281 306.871094 L 601.058594 306.871094 Z M 601.058594 305.671875 " />
</clipPath>
<clipPath id="clip-206">
<path clip-rule="nonzero" d="M 602.148438 305.671875 L 603.34375 305.671875 L 603.34375 306.882812 L 602.148438 306.882812 Z M 602.148438 305.671875 " />
</clipPath>
<clipPath id="clip-207">
<path clip-rule="nonzero" d="M 603.257812 305.695312 L 604.445312 305.695312 L 604.445312 306.882812 L 603.257812 306.882812 Z M 603.257812 305.695312 " />
</clipPath>
<clipPath id="clip-208">
<path clip-rule="nonzero" d="M 604.359375 305.695312 L 605.554688 305.695312 L 605.554688 306.890625 L 604.359375 306.890625 Z M 604.359375 305.695312 " />
</clipPath>
<clipPath id="clip-209">
<path clip-rule="nonzero" d="M 605.46875 305.707031 L 606.679688 305.707031 L 606.679688 306.890625 L 605.46875 306.890625 Z M 605.46875 305.707031 " />
</clipPath>
<clipPath id="clip-210">
<path clip-rule="nonzero" d="M 606.59375 305.707031 L 607.769531 305.707031 L 607.769531 306.90625 L 606.59375 306.90625 Z M 606.59375 305.707031 " />
</clipPath>
<clipPath id="clip-211">
<path clip-rule="nonzero" d="M 607.710938 305.621094 L 608.921875 305.621094 L 608.921875 306.886719 L 607.710938 306.886719 Z M 607.710938 305.621094 " />
</clipPath>
<clipPath id="clip-212">
<path clip-rule="nonzero" d="M 608.832031 305.621094 L 610.101562 305.621094 L 610.101562 306.832031 L 608.832031 306.832031 Z M 608.832031 305.621094 " />
</clipPath>
<clipPath id="clip-213">
<path clip-rule="nonzero" d="M 610.011719 305.679688 L 611.097656 305.679688 L 611.097656 306.832031 L 610.011719 306.832031 Z M 610.011719 305.679688 " />
</clipPath>
<clipPath id="clip-214">
<path clip-rule="nonzero" d="M 619.347656 306.125 L 619.679688 306.125 L 619.679688 306.460938 L 619.347656 306.460938 Z M 619.347656 306.125 " />
</clipPath>
<clipPath id="clip-215">
<path clip-rule="nonzero" d="M 625.476562 279.726562 L 626.683594 279.726562 L 626.683594 280.933594 L 625.476562 280.933594 Z M 625.476562 279.726562 " />
</clipPath>
<clipPath id="clip-216">
<path clip-rule="nonzero" d="M 625.484375 280.84375 L 626.683594 280.84375 L 626.683594 282.054688 L 625.484375 282.054688 Z M 625.484375 280.84375 " />
</clipPath>
<clipPath id="clip-217">
<path clip-rule="nonzero" d="M 625.484375 281.96875 L 626.695312 281.96875 L 626.695312 283.152344 L 625.484375 283.152344 Z M 625.484375 281.96875 " />
</clipPath>
<clipPath id="clip-218">
<path clip-rule="nonzero" d="M 625.488281 283.0625 L 626.695312 283.0625 L 626.695312 284.273438 L 625.488281 284.273438 Z M 625.488281 283.0625 " />
</clipPath>
<clipPath id="clip-219">
<path clip-rule="nonzero" d="M 625.488281 284.1875 L 626.6875 284.1875 L 626.6875 285.378906 L 625.488281 285.378906 Z M 625.488281 284.1875 " />
</clipPath>
<clipPath id="clip-220">
<path clip-rule="nonzero" d="M 625.496094 285.289062 L 626.6875 285.289062 L 626.6875 286.5 L 625.496094 286.5 Z M 625.496094 285.289062 " />
</clipPath>
<clipPath id="clip-221">
<path clip-rule="nonzero" d="M 625.496094 286.414062 L 626.691406 286.414062 L 626.691406 287.628906 L 625.496094 287.628906 Z M 625.496094 286.414062 " />
</clipPath>
<clipPath id="clip-222">
<path clip-rule="nonzero" d="M 625.496094 287.542969 L 626.691406 287.542969 L 626.691406 288.734375 L 625.496094 288.734375 Z M 625.496094 287.542969 " />
</clipPath>
<clipPath id="clip-223">
<path clip-rule="nonzero" d="M 625.515625 288.675781 L 626.796875 288.675781 L 626.796875 289.890625 L 625.515625 289.890625 Z M 625.515625 288.675781 " />
</clipPath>
<clipPath id="clip-224">
<path clip-rule="nonzero" d="M 625.589844 289.800781 L 626.796875 289.800781 L 626.796875 291.082031 L 625.589844 291.082031 Z M 625.589844 289.800781 " />
</clipPath>
<clipPath id="clip-225">
<path clip-rule="nonzero" d="M 625.589844 290.992188 L 626.867188 290.992188 L 626.867188 292.183594 L 625.589844 292.183594 Z M 625.589844 290.992188 " />
</clipPath>
<clipPath id="clip-226">
<path clip-rule="nonzero" d="M 625.652344 292.09375 L 626.867188 292.09375 L 626.867188 293.375 L 625.652344 293.375 Z M 625.652344 292.09375 " />
</clipPath>
<clipPath id="clip-227">
<path clip-rule="nonzero" d="M 625.605469 293.265625 L 626.460938 293.265625 L 626.460938 294 L 625.605469 294 Z M 625.605469 293.265625 " />
</clipPath>
<clipPath id="clip-228">
<path clip-rule="nonzero" d="M 599.859375 296.777344 L 601.046875 296.777344 L 601.046875 297.980469 L 599.859375 297.980469 Z M 599.859375 296.777344 " />
</clipPath>
<clipPath id="clip-229">
<path clip-rule="nonzero" d="M 599.847656 297.894531 L 601.042969 297.894531 L 601.042969 299.085938 L 599.847656 299.085938 Z M 599.847656 297.894531 " />
</clipPath>
<clipPath id="clip-230">
<path clip-rule="nonzero" d="M 599.847656 299 L 601.039062 299 L 601.039062 300.179688 L 599.847656 300.179688 Z M 599.847656 299 " />
</clipPath>
<clipPath id="clip-231">
<path clip-rule="nonzero" d="M 599.832031 300.089844 L 601.035156 300.089844 L 601.035156 301.285156 L 599.832031 301.285156 Z M 599.832031 300.089844 " />
</clipPath>
<clipPath id="clip-232">
<path clip-rule="nonzero" d="M 599.832031 301.195312 L 601.015625 301.195312 L 601.015625 302.382812 L 599.832031 302.382812 Z M 599.832031 301.195312 " />
</clipPath>
<clipPath id="clip-233">
<path clip-rule="nonzero" d="M 599.824219 302.296875 L 601.015625 302.296875 L 601.015625 303.488281 L 599.824219 303.488281 Z M 599.824219 302.296875 " />
</clipPath>
<clipPath id="clip-234">
<path clip-rule="nonzero" d="M 599.824219 303.402344 L 601 303.402344 L 601 304.613281 L 599.824219 304.613281 Z M 599.824219 303.402344 " />
</clipPath>
<clipPath id="clip-235">
<path clip-rule="nonzero" d="M 599.960938 304.527344 L 601 304.527344 L 601 305.710938 L 599.960938 305.710938 Z M 599.960938 304.527344 " />
</clipPath>
<clipPath id="clip-236">
<path clip-rule="nonzero" d="M 599.90625 290.109375 L 601.09375 290.109375 L 601.09375 291.308594 L 599.90625 291.308594 Z M 599.90625 290.109375 " />
</clipPath>
<clipPath id="clip-237">
<path clip-rule="nonzero" d="M 599.894531 291.222656 L 601.089844 291.222656 L 601.089844 292.417969 L 599.894531 292.417969 Z M 599.894531 291.222656 " />
</clipPath>
<clipPath id="clip-238">
<path clip-rule="nonzero" d="M 599.894531 292.332031 L 601.085938 292.332031 L 601.085938 293.507812 L 599.894531 293.507812 Z M 599.894531 292.332031 " />
</clipPath>
<clipPath id="clip-239">
<path clip-rule="nonzero" d="M 599.878906 293.421875 L 601.082031 293.421875 L 601.082031 294.613281 L 599.878906 294.613281 Z M 599.878906 293.421875 " />
</clipPath>
<clipPath id="clip-240">
<path clip-rule="nonzero" d="M 599.878906 294.53125 L 601.0625 294.53125 L 601.0625 295.71875 L 599.878906 295.71875 Z M 599.878906 294.53125 " />
</clipPath>
<clipPath id="clip-241">
<path clip-rule="nonzero" d="M 599.871094 295.628906 L 601.0625 295.628906 L 601.0625 296.816406 L 599.871094 296.816406 Z M 599.871094 295.628906 " />
</clipPath>
<clipPath id="clip-242">
<path clip-rule="nonzero" d="M 599.921875 289.089844 L 601.027344 289.089844 L 601.027344 290.179688 L 599.921875 290.179688 Z M 599.921875 289.089844 " />
</clipPath>
<clipPath id="clip-243">
<path clip-rule="nonzero" d="M 599.359375 279.816406 L 600.550781 279.816406 L 600.550781 281.105469 L 599.359375 281.105469 Z M 599.359375 279.816406 " />
</clipPath>
<clipPath id="clip-244">
<path clip-rule="nonzero" d="M 600.464844 279.816406 L 601.757812 279.816406 L 601.757812 281.039062 L 600.464844 281.039062 Z M 600.464844 279.816406 " />
</clipPath>
<clipPath id="clip-245">
<path clip-rule="nonzero" d="M 601.667969 279.757812 L 602.867188 279.757812 L 602.867188 281.039062 L 601.667969 281.039062 Z M 601.667969 279.757812 " />
</clipPath>
<clipPath id="clip-246">
<path clip-rule="nonzero" d="M 602.78125 279.757812 L 604.0625 279.757812 L 604.0625 280.960938 L 602.78125 280.960938 Z M 602.78125 279.757812 " />
</clipPath>
<clipPath id="clip-247">
<path clip-rule="nonzero" d="M 603.972656 279.683594 L 605.199219 279.683594 L 605.199219 280.960938 L 603.972656 280.960938 Z M 603.972656 279.683594 " />
</clipPath>
<clipPath id="clip-248">
<path clip-rule="nonzero" d="M 606.269531 279.636719 L 607.472656 279.636719 L 607.472656 280.832031 L 606.269531 280.832031 Z M 606.269531 279.636719 " />
</clipPath>
<clipPath id="clip-249">
<path clip-rule="nonzero" d="M 607.382812 279.636719 L 608.582031 279.636719 L 608.582031 280.839844 L 607.382812 280.839844 Z M 607.382812 279.636719 " />
</clipPath>
<clipPath id="clip-250">
<path clip-rule="nonzero" d="M 608.496094 279.640625 L 609.675781 279.640625 L 609.675781 280.839844 L 608.496094 280.839844 Z M 608.496094 279.640625 " />
</clipPath>
<clipPath id="clip-251">
<path clip-rule="nonzero" d="M 599.835938 283.585938 L 601.027344 283.585938 L 601.027344 284.785156 L 599.835938 284.785156 Z M 599.835938 283.585938 " />
</clipPath>
<clipPath id="clip-252">
<path clip-rule="nonzero" d="M 599.824219 284.699219 L 601.023438 284.699219 L 601.023438 285.890625 L 599.824219 285.890625 Z M 599.824219 284.699219 " />
</clipPath>
<clipPath id="clip-253">
<path clip-rule="nonzero" d="M 599.824219 285.804688 L 601.015625 285.804688 L 601.015625 286.984375 L 599.824219 286.984375 Z M 599.824219 285.804688 " />
</clipPath>
<clipPath id="clip-254">
<path clip-rule="nonzero" d="M 599.808594 286.898438 L 601.019531 286.898438 L 601.019531 288.089844 L 599.808594 288.089844 Z M 599.808594 286.898438 " />
</clipPath>
<clipPath id="clip-255">
<path clip-rule="nonzero" d="M 599.808594 288.003906 L 600.992188 288.003906 L 600.992188 289.191406 L 599.808594 289.191406 Z M 599.808594 288.003906 " />
</clipPath>
<clipPath id="clip-256">
<path clip-rule="nonzero" d="M 599.851562 282.535156 L 600.96875 282.535156 L 600.96875 283.65625 L 599.851562 283.65625 Z M 599.851562 282.535156 " />
</clipPath>
<clipPath id="clip-257">
<path clip-rule="nonzero" d="M 599.355469 281.011719 L 601 281.011719 L 601 282.738281 L 599.355469 282.738281 Z M 599.355469 281.011719 " />
</clipPath>
<clipPath id="clip-258">
<path clip-rule="nonzero" d="M 595.910156 276.6875 L 596.386719 276.6875 L 596.386719 283.605469 L 595.910156 283.605469 Z M 595.910156 276.6875 " />
</clipPath>
<clipPath id="clip-259">
<path clip-rule="nonzero" d="M 595.910156 271.265625 L 597.726562 271.265625 L 597.726562 277.222656 L 595.910156 277.222656 Z M 595.910156 271.265625 " />
</clipPath>
<clipPath id="clip-260">
<path clip-rule="nonzero" d="M 616.835938 308.859375 L 620.324219 308.859375 L 620.324219 311.640625 L 616.835938 311.640625 Z M 616.835938 308.859375 " />
</clipPath>
<clipPath id="clip-261">
<path clip-rule="nonzero" d="M 615.359375 306.472656 L 617.132812 306.472656 L 617.132812 309.160156 L 615.359375 309.160156 Z M 615.359375 306.472656 " />
</clipPath>
<clipPath id="clip-262">
<path clip-rule="nonzero" d="M 614.4375 305.1875 L 615.769531 305.1875 L 615.769531 306.84375 L 614.4375 306.84375 Z M 614.4375 305.1875 " />
</clipPath>
<clipPath id="clip-263">
<path clip-rule="nonzero" d="M 613.792969 304.550781 L 615.171875 304.550781 L 615.171875 306.199219 L 613.792969 306.199219 Z M 613.792969 304.550781 " />
</clipPath>
<clipPath id="clip-264">
<path clip-rule="nonzero" d="M 613.15625 303.324219 L 614.269531 303.324219 L 614.269531 305.027344 L 613.15625 305.027344 Z M 613.15625 303.324219 " />
</clipPath>
<clipPath id="clip-265">
<path clip-rule="nonzero" d="M 613.382812 303.238281 L 618.675781 303.238281 L 618.675781 306.742188 L 613.382812 306.742188 Z M 613.382812 303.238281 " />
</clipPath>
<clipPath id="clip-266">
<path clip-rule="nonzero" d="M 618.273438 305.703125 L 619.753906 305.703125 L 619.753906 307.683594 L 618.273438 307.683594 Z M 618.273438 305.703125 " />
</clipPath>
<clipPath id="clip-267">
<path clip-rule="nonzero" d="M 615.066406 297.894531 L 619.617188 297.894531 L 619.617188 306.070312 L 615.066406 306.070312 Z M 615.066406 297.894531 " />
</clipPath>
<clipPath id="clip-268">
<path clip-rule="nonzero" d="M 614 294.746094 L 615.574219 294.746094 L 615.574219 298.476562 L 614 298.476562 Z M 614 294.746094 " />
</clipPath>
<clipPath id="clip-269">
<path clip-rule="nonzero" d="M 616.535156 296.414062 L 620.925781 296.414062 L 620.925781 302.113281 L 616.535156 302.113281 Z M 616.535156 296.414062 " />
</clipPath>
<clipPath id="clip-270">
<path clip-rule="nonzero" d="M 615.660156 295.285156 L 616.835938 295.285156 L 616.835938 296.710938 L 615.660156 296.710938 Z M 615.660156 295.285156 " />
</clipPath>
<clipPath id="clip-271">
<path clip-rule="nonzero" d="M 614.886719 294.746094 L 616.066406 294.746094 L 616.066406 295.816406 L 614.886719 295.816406 Z M 614.886719 294.746094 " />
</clipPath>
<clipPath id="clip-272">
<path clip-rule="nonzero" d="M 616.140625 294.746094 L 620.300781 294.746094 L 620.300781 297.78125 L 616.140625 297.78125 Z M 616.140625 294.746094 " />
</clipPath>
<clipPath id="clip-273">
<path clip-rule="nonzero" d="M 620.003906 297.488281 L 622.96875 297.488281 L 622.96875 301.347656 L 620.003906 301.347656 Z M 620.003906 297.488281 " />
</clipPath>
<clipPath id="clip-274">
<path clip-rule="nonzero" d="M 618.503906 295.152344 L 622.617188 295.152344 L 622.617188 297.890625 L 618.503906 297.890625 Z M 618.503906 295.152344 " />
</clipPath>
<clipPath id="clip-275">
<path clip-rule="nonzero" d="M 622.320312 297.589844 L 625.304688 297.589844 L 625.304688 301.054688 L 622.320312 301.054688 Z M 622.320312 297.589844 " />
</clipPath>
<clipPath id="clip-276">
<path clip-rule="nonzero" d="M 622.140625 296.496094 L 626.675781 296.496094 L 626.675781 300.230469 L 622.140625 300.230469 Z M 622.140625 296.496094 " />
</clipPath>
<clipPath id="clip-277">
<path clip-rule="nonzero" d="M 626.375 299.933594 L 630.382812 299.933594 L 630.382812 308.730469 L 626.375 308.730469 Z M 626.375 299.933594 " />
</clipPath>
<clipPath id="clip-278">
<path clip-rule="nonzero" d="M 630 308.375 L 633.101562 308.375 L 633.101562 311.722656 L 630 311.722656 Z M 630 308.375 " />
</clipPath>
<clipPath id="clip-279">
<path clip-rule="nonzero" d="M 632.804688 311.421875 L 634.269531 311.421875 L 634.269531 312.691406 L 632.804688 312.691406 Z M 632.804688 311.421875 " />
</clipPath>
<clipPath id="clip-280">
<path clip-rule="nonzero" d="M 620.027344 311.34375 L 629.5625 311.34375 L 629.5625 317.34375 L 620.027344 317.34375 Z M 620.027344 311.34375 " />
</clipPath>
<clipPath id="clip-281">
<path clip-rule="nonzero" d="M 609.164062 294.238281 L 611.132812 294.238281 L 611.132812 309.691406 L 609.164062 309.691406 Z M 609.164062 294.238281 " />
</clipPath>
<clipPath id="clip-282">
<path clip-rule="nonzero" d="M 609.164062 293.128906 L 627.953125 293.128906 L 627.953125 295.824219 L 609.164062 295.824219 Z M 609.164062 293.128906 " />
</clipPath>
<clipPath id="clip-283">
<path clip-rule="nonzero" d="M 610.253906 308.894531 L 618 308.894531 L 618 310.53125 L 610.253906 310.53125 Z M 610.253906 308.894531 " />
</clipPath>
<clipPath id="clip-284">
<path clip-rule="nonzero" d="M 627.296875 293.183594 L 629.273438 293.183594 L 629.273438 304.964844 L 627.296875 304.964844 Z M 627.296875 293.183594 " />
</clipPath>
<clipPath id="clip-285">
<path clip-rule="nonzero" d="M 551.820312 277.601562 L 553.34375 277.601562 L 553.34375 281.714844 L 551.820312 281.714844 Z M 551.820312 277.601562 " />
</clipPath>
<clipPath id="clip-286">
<path clip-rule="nonzero" d="M 567.757812 292.851562 L 571.742188 292.851562 L 571.742188 294.191406 L 567.757812 294.191406 Z M 567.757812 292.851562 " />
</clipPath>
<clipPath id="clip-287">
<path clip-rule="nonzero" d="M 572.257812 281.136719 L 573.835938 281.136719 L 573.835938 284.554688 L 572.257812 284.554688 Z M 572.257812 281.136719 " />
</clipPath>
<clipPath id="clip-288">
<path clip-rule="nonzero" d="M 608.035156 298.132812 L 608.617188 298.132812 L 608.617188 301.152344 L 608.035156 301.152344 Z M 608.035156 298.132812 " />
</clipPath>
<clipPath id="clip-289">
<path clip-rule="nonzero" d="M 613.3125 292.1875 L 617.332031 292.1875 L 617.332031 293.125 L 613.3125 293.125 Z M 613.3125 292.1875 " />
</clipPath>
<clipPath id="clip-290">
<path clip-rule="nonzero" d="M 583.492188 362.140625 L 629.382812 362.140625 L 629.382812 408.5625 L 583.492188 408.5625 Z M 583.492188 362.140625 " />
</clipPath>
<clipPath id="clip-291">
<path clip-rule="nonzero" d="M 585.804688 374.085938 L 626.890625 374.085938 L 626.890625 406.207031 L 585.804688 406.207031 Z M 585.804688 374.085938 " />
</clipPath>
<clipPath id="clip-292">
<path clip-rule="nonzero" d="M 583.929688 371.835938 L 629.164062 371.835938 L 629.164062 372.296875 L 583.929688 372.296875 Z M 583.929688 371.835938 " />
</clipPath>
<clipPath id="clip-293">
<path clip-rule="nonzero" d="M 600.875 364.242188 L 611.921875 364.242188 L 611.921875 370.703125 L 600.875 370.703125 Z M 600.875 364.242188 " />
</clipPath>
<clipPath id="clip-294">
<path clip-rule="nonzero" d="M 602.476562 365.796875 L 610.351562 365.796875 L 610.351562 369.101562 L 602.476562 369.101562 Z M 602.476562 365.796875 " />
</clipPath>
<clipPath id="clip-295">
<path clip-rule="nonzero" d="M 614.691406 365.488281 L 616.417969 365.488281 L 616.417969 368.621094 L 614.691406 368.621094 Z M 614.691406 365.488281 " />
</clipPath>
<clipPath id="clip-296">
<path clip-rule="nonzero" d="M 615.894531 366.078125 L 617.691406 366.078125 L 617.691406 369.335938 L 615.894531 369.335938 Z M 615.894531 366.078125 " />
</clipPath>
<clipPath id="clip-297">
<path clip-rule="nonzero" d="M 620.441406 364.066406 L 627.152344 364.066406 L 627.152344 370.777344 L 620.441406 370.777344 Z M 620.441406 364.066406 " />
</clipPath>
<clipPath id="clip-298">
<path clip-rule="nonzero" d="M 622.828125 365.648438 L 623.285156 365.648438 L 623.285156 369.089844 L 622.828125 369.089844 Z M 622.828125 365.648438 " />
</clipPath>
<clipPath id="clip-299">
<path clip-rule="nonzero" d="M 624.195312 365.667969 L 624.710938 365.667969 L 624.710938 369.183594 L 624.195312 369.183594 Z M 624.195312 365.667969 " />
</clipPath>
<clipPath id="clip-300">
<path clip-rule="nonzero" d="M 590.867188 404.046875 L 597.628906 404.046875 L 597.628906 406.183594 L 590.867188 406.183594 Z M 590.867188 404.046875 " />
</clipPath>
<clipPath id="clip-301">
<path clip-rule="nonzero" d="M 615.121094 404 L 621.828125 404 L 621.828125 406.175781 L 615.121094 406.175781 Z M 615.121094 404 " />
</clipPath>
<clipPath id="clip-302">
<path clip-rule="nonzero" d="M 589.140625 385.4375 L 589.886719 385.4375 L 589.886719 399.105469 L 589.140625 399.105469 Z M 589.140625 385.4375 " />
</clipPath>
<clipPath id="clip-303">
<path clip-rule="nonzero" d="M 622.851562 385.097656 L 623.558594 385.097656 L 623.558594 398.675781 L 622.851562 398.675781 Z M 622.851562 385.097656 " />
</clipPath>
<clipPath id="clip-304">
<path clip-rule="nonzero" d="M 592.734375 382.074219 L 620.039062 382.074219 L 620.039062 382.738281 L 592.734375 382.738281 Z M 592.734375 382.074219 " />
</clipPath>
<clipPath id="clip-305">
<path clip-rule="nonzero" d="M 592.304688 402.109375 L 620.136719 402.109375 L 620.136719 402.796875 L 592.304688 402.796875 Z M 592.304688 402.109375 " />
</clipPath>
<clipPath id="clip-306">
<path clip-rule="nonzero" d="M 589.226562 382.074219 L 593.382812 382.074219 L 593.382812 386.097656 L 589.226562 386.097656 Z M 589.226562 382.074219 " />
</clipPath>
<clipPath id="clip-307">
<path clip-rule="nonzero" d="M 619.378906 382.074219 L 623.511719 382.074219 L 623.511719 385.757812 L 619.378906 385.757812 Z M 619.378906 382.074219 " />
</clipPath>
<clipPath id="clip-308">
<path clip-rule="nonzero" d="M 619.480469 398.039062 L 623.5625 398.039062 L 623.5625 402.773438 L 619.480469 402.773438 Z M 619.480469 398.039062 " />
</clipPath>
<clipPath id="clip-309">
<path clip-rule="nonzero" d="M 589.140625 398.453125 L 592.96875 398.453125 L 592.96875 402.796875 L 589.140625 402.796875 Z M 589.140625 398.453125 " />
</clipPath>
<clipPath id="clip-310">
<path clip-rule="nonzero" d="M 619.851562 377.105469 L 623.734375 377.105469 L 623.734375 380.535156 L 619.851562 380.535156 Z M 619.851562 377.105469 " />
</clipPath>
<clipPath id="clip-311">
<path clip-rule="nonzero" d="M 589.097656 377.132812 L 593.570312 377.132812 L 593.570312 380.589844 L 589.097656 380.589844 Z M 589.097656 377.132812 " />
</clipPath>
<clipPath id="clip-312">
<path clip-rule="nonzero" d="M 591.636719 377.125 L 620.886719 377.125 L 620.886719 377.792969 L 591.636719 377.792969 Z M 591.636719 377.125 " />
</clipPath>
<clipPath id="clip-313">
<path clip-rule="nonzero" d="M 590.9375 379.878906 L 621.828125 379.878906 L 621.828125 380.589844 L 590.9375 380.589844 Z M 590.9375 379.878906 " />
</clipPath>
<clipPath id="clip-314">
<path clip-rule="nonzero" d="M 600.074219 388.5 L 601.648438 388.5 L 601.648438 392.644531 L 600.074219 392.644531 Z M 600.074219 388.5 " />
</clipPath>
<clipPath id="clip-315">
<path clip-rule="nonzero" d="M 601.007812 392 L 602.34375 392 L 602.34375 396.300781 L 601.007812 396.300781 Z M 601.007812 392 " />
</clipPath>
<clipPath id="clip-316">
<path clip-rule="nonzero" d="M 603.679688 388.347656 L 605.085938 388.347656 L 605.085938 392.90625 L 603.679688 392.90625 Z M 603.679688 388.347656 " />
</clipPath>
<clipPath id="clip-317">
<path clip-rule="nonzero" d="M 604.210938 392.246094 L 605.546875 392.246094 L 605.546875 396.425781 L 604.210938 396.425781 Z M 604.210938 392.246094 " />
</clipPath>
<clipPath id="clip-318">
<path clip-rule="nonzero" d="M 607.015625 388.476562 L 608.347656 388.476562 L 608.347656 392.660156 L 607.015625 392.660156 Z M 607.015625 388.476562 " />
</clipPath>
<clipPath id="clip-319">
<path clip-rule="nonzero" d="M 607.546875 392 L 608.882812 392 L 608.882812 396.503906 L 607.546875 396.503906 Z M 607.546875 392 " />
</clipPath>
<clipPath id="clip-320">
<path clip-rule="nonzero" d="M 610.484375 388.476562 L 611.953125 388.476562 L 611.953125 393.050781 L 610.484375 393.050781 Z M 610.484375 388.476562 " />
</clipPath>
<clipPath id="clip-321">
<path clip-rule="nonzero" d="M 610.765625 392.390625 L 612.21875 392.390625 L 612.21875 396.277344 L 610.765625 396.277344 Z M 610.765625 392.390625 " />
</clipPath>
<clipPath id="clip-322">
<path clip-rule="nonzero" d="M 587.53125 366.4375 L 589.21875 366.4375 L 589.21875 368.3125 L 587.53125 368.3125 Z M 587.53125 366.4375 " />
</clipPath>
<clipPath id="clip-323">
<path clip-rule="nonzero" d="M 592.066406 366.53125 L 593.664062 366.53125 L 593.664062 368.382812 L 592.066406 368.382812 Z M 592.066406 366.53125 " />
</clipPath>
<clipPath id="clip-324">
<path clip-rule="nonzero" d="M 596.488281 366.53125 L 598.195312 366.53125 L 598.195312 368.445312 L 596.488281 368.445312 Z M 596.488281 366.53125 " />
</clipPath>
<clipPath id="clip-325">
<path clip-rule="nonzero" d="M 614.488281 365.78125 L 616.042969 365.78125 L 616.042969 368.359375 L 614.488281 368.359375 Z M 614.488281 365.78125 " />
</clipPath>
<clipPath id="clip-326">
<path clip-rule="nonzero" d="M 616.113281 366.402344 L 617.960938 366.402344 L 617.960938 369.335938 L 616.113281 369.335938 Z M 616.113281 366.402344 " />
</clipPath>
<clipPath id="clip-327">
<path clip-rule="nonzero" d="M 622.160156 366.089844 L 623.121094 366.089844 L 623.121094 368.703125 L 622.160156 368.703125 Z M 622.160156 366.089844 " />
</clipPath>
<clipPath id="clip-328">
<path clip-rule="nonzero" d="M 624.363281 366.039062 L 625.429688 366.039062 L 625.429688 369 L 624.363281 369 Z M 624.363281 366.039062 " />
</clipPath>
</defs>
<path fill-rule="nonzero" fill="rgb(85.881042%, 12.156677%, 14.901733%)" fill-opacity="1" d="M 410.171875 57.574219 L 410.171875 67.570312 L 412.675781 67.570312 L 412.675781 57.574219 Z M 410.171875 77.566406 L 410.171875 87.5625 L 412.675781 87.5625 L 412.675781 77.566406 Z M 410.171875 97.558594 L 410.171875 107.554688 L 412.675781 107.554688 L 412.675781 97.558594 Z M 410.171875 117.550781 L 410.171875 127.550781 L 412.675781 127.550781 L 412.675781 117.550781 Z M 410.171875 137.546875 L 410.171875 147.542969 L 412.675781 147.542969 L 412.675781 137.546875 Z M 410.171875 157.539062 L 410.171875 167.535156 L 412.675781 167.535156 L 412.675781 157.539062 Z M 410.171875 177.53125 L 410.171875 187.53125 L 412.675781 187.53125 L 412.675781 177.53125 Z M 410.171875 197.523438 L 410.171875 207.523438 L 412.675781 207.523438 L 412.675781 197.523438 Z M 410.171875 217.519531 L 410.171875 227.515625 L 412.675781 227.515625 L 412.675781 217.519531 Z M 410.171875 237.511719 L 410.171875 247.507812 L 412.675781 247.507812 L 412.675781 237.511719 Z M 410.171875 257.503906 L 410.171875 267.503906 L 412.675781 267.503906 L 412.675781 257.503906 Z M 410.171875 277.496094 L 410.171875 287.496094 L 412.675781 287.496094 L 412.675781 277.496094 Z M 410.171875 297.492188 L 410.171875 307.488281 L 412.675781 307.488281 L 412.675781 297.492188 Z M 410.171875 317.484375 L 410.171875 327.480469 L 412.675781 327.480469 L 412.675781 317.484375 Z M 410.171875 337.476562 L 410.171875 347.476562 L 412.675781 347.476562 L 412.675781 337.476562 Z M 410.171875 357.46875 L 410.171875 367.46875 L 412.675781 367.46875 L 412.675781 357.46875 Z M 410.171875 377.464844 L 410.171875 387.460938 L 412.675781 387.460938 L 412.675781 377.464844 Z M 410.171875 397.457031 L 410.171875 407.453125 L 412.675781 407.453125 L 412.675781 397.457031 Z M 410.171875 417.449219 L 410.171875 427.449219 L 412.675781 427.449219 L 412.675781 417.449219 Z M 410.171875 437.445312 L 410.171875 447.441406 L 412.675781 447.441406 L 412.675781 437.445312 Z M 410.171875 457.4375 L 410.171875 467.433594 L 412.675781 467.433594 L 412.675781 457.4375 Z M 410.171875 477.429688 L 410.171875 487.425781 L 412.675781 487.425781 L 412.675781 477.429688 Z M 410.171875 477.429688 " />
<path fill-rule="nonzero" fill="rgb(85.881042%, 12.156677%, 14.901733%)" fill-opacity="1" d="M 386.152344 501.167969 L 386.152344 503.671875 L 396.261719 503.671875 L 396.261719 501.167969 Z M 365.9375 501.167969 L 365.9375 503.671875 L 376.042969 503.671875 L 376.042969 501.167969 Z M 345.71875 501.167969 L 345.71875 503.671875 L 355.828125 503.671875 L 355.828125 501.167969 Z M 325.503906 501.167969 L 325.503906 503.671875 L 335.609375 503.671875 L 335.609375 501.167969 Z M 305.285156 501.167969 L 305.285156 503.671875 L 315.394531 503.671875 L 315.394531 501.167969 Z M 285.070312 501.167969 L 285.070312 503.671875 L 295.179688 503.671875 L 295.179688 501.167969 Z M 264.855469 501.167969 L 264.855469 503.671875 L 274.960938 503.671875 L 274.960938 501.167969 Z M 244.636719 501.167969 L 244.636719 503.671875 L 254.746094 503.671875 L 254.746094 501.167969 Z M 224.421875 501.167969 L 224.421875 503.671875 L 234.527344 503.671875 L 234.527344 501.167969 Z M 204.203125 501.167969 L 204.203125 503.671875 L 214.3125 503.671875 L 214.3125 501.167969 Z M 183.988281 501.167969 L 183.988281 503.671875 L 194.09375 503.671875 L 194.09375 501.167969 Z M 163.773438 501.167969 L 163.773438 503.671875 L 173.878906 503.671875 L 173.878906 501.167969 Z M 143.554688 501.167969 L 143.554688 503.671875 L 153.664062 503.671875 L 153.664062 501.167969 Z M 123.339844 501.167969 L 123.339844 503.671875 L 133.445312 503.671875 L 133.445312 501.167969 Z M 103.121094 501.167969 L 103.121094 503.671875 L 113.230469 503.671875 L 113.230469 501.167969 Z M 103.121094 501.167969 " />
<path fill-rule="nonzero" fill="rgb(85.881042%, 12.156677%, 14.901733%)" fill-opacity="1" d="M 89.210938 487.425781 L 89.210938 477.429688 L 86.707031 477.429688 L 86.707031 487.425781 Z M 89.210938 467.433594 L 89.210938 457.4375 L 86.707031 457.4375 L 86.707031 467.433594 Z M 89.210938 447.441406 L 89.210938 437.445312 L 86.707031 437.445312 L 86.707031 447.441406 Z M 89.210938 427.449219 L 89.210938 417.449219 L 86.707031 417.449219 L 86.707031 427.449219 Z M 89.210938 407.453125 L 89.210938 397.457031 L 86.707031 397.457031 L 86.707031 407.453125 Z M 89.210938 387.460938 L 89.210938 377.464844 L 86.707031 377.464844 L 86.707031 387.460938 Z M 89.210938 367.46875 L 89.210938 357.46875 L 86.707031 357.46875 L 86.707031 367.46875 Z M 89.210938 347.476562 L 89.210938 337.476562 L 86.707031 337.476562 L 86.707031 347.476562 Z M 89.210938 327.480469 L 89.210938 317.484375 L 86.707031 317.484375 L 86.707031 327.480469 Z M 89.210938 307.488281 L 89.210938 297.492188 L 86.707031 297.492188 L 86.707031 307.488281 Z M 89.210938 287.496094 L 89.210938 277.496094 L 86.707031 277.496094 L 86.707031 287.496094 Z M 89.210938 267.503906 L 89.210938 257.503906 L 86.707031 257.503906 L 86.707031 267.503906 Z M 89.210938 247.507812 L 89.210938 237.511719 L 86.707031 237.511719 L 86.707031 247.507812 Z M 89.210938 227.515625 L 89.210938 217.519531 L 86.707031 217.519531 L 86.707031 227.515625 Z M 89.210938 207.523438 L 89.210938 197.523438 L 86.707031 197.523438 L 86.707031 207.523438 Z M 89.210938 187.53125 L 89.210938 177.53125 L 86.707031 177.53125 L 86.707031 187.53125 Z M 89.210938 167.535156 L 89.210938 157.539062 L 86.707031 157.539062 L 86.707031 167.535156 Z M 89.210938 147.542969 L 89.210938 137.546875 L 86.707031 137.546875 L 86.707031 147.542969 Z M 89.210938 127.550781 L 89.210938 117.550781 L 86.707031 117.550781 L 86.707031 127.550781 Z M 89.210938 107.554688 L 89.210938 97.558594 L 86.707031 97.558594 L 86.707031 107.554688 Z M 89.210938 87.5625 L 89.210938 77.566406 L 86.707031 77.566406 L 86.707031 87.5625 Z M 89.210938 67.570312 L 89.210938 57.574219 L 86.707031 57.574219 L 86.707031 67.570312 Z M 89.210938 67.570312 " />
<path fill-rule="nonzero" fill="rgb(85.881042%, 12.156677%, 14.901733%)" fill-opacity="1" d="M 113.230469 43.832031 L 113.230469 41.328125 L 103.121094 41.328125 L 103.121094 43.832031 Z M 133.445312 43.832031 L 133.445312 41.328125 L 123.339844 41.328125 L 123.339844 43.832031 Z M 153.664062 43.832031 L 153.664062 41.328125 L 143.554688 41.328125 L 143.554688 43.832031 Z M 173.878906 43.832031 L 173.878906 41.328125 L 163.773438 41.328125 L 163.773438 43.832031 Z M 194.097656 43.832031 L 194.097656 41.328125 L 183.988281 41.328125 L 183.988281 43.832031 Z M 214.3125 43.832031 L 214.3125 41.328125 L 204.207031 41.328125 L 204.207031 43.832031 Z M 234.527344 43.832031 L 234.527344 41.328125 L 224.421875 41.328125 L 224.421875 43.832031 Z M 254.746094 43.832031 L 254.746094 41.328125 L 244.636719 41.328125 L 244.636719 43.832031 Z M 274.960938 43.832031 L 274.960938 41.328125 L 264.855469 41.328125 L 264.855469 43.832031 Z M 295.179688 43.832031 L 295.179688 41.328125 L 285.070312 41.328125 L 285.070312 43.832031 Z M 315.394531 43.832031 L 315.394531 41.328125 L 305.289062 41.328125 L 305.289062 43.832031 Z M 335.613281 43.832031 L 335.613281 41.328125 L 325.503906 41.328125 L 325.503906 43.832031 Z M 355.828125 43.832031 L 355.828125 41.328125 L 345.71875 41.328125 L 345.71875 43.832031 Z M 376.042969 43.832031 L 376.042969 41.328125 L 365.9375 41.328125 L 365.9375 43.832031 Z M 396.261719 43.832031 L 396.261719 41.328125 L 386.152344 41.328125 L 386.152344 43.832031 Z M 396.261719 43.832031 " />
<path fill-rule="nonzero" fill="rgb(85.881042%, 12.156677%, 14.901733%)" fill-opacity="1" d="M 410.171875 497.421875 L 410.171875 501.167969 L 406.367188 501.167969 L 406.367188 503.671875 L 412.675781 503.671875 L 412.675781 497.421875 Z M 93.015625 501.167969 L 89.210938 501.167969 L 89.210938 497.421875 L 86.707031 497.421875 L 86.710938 503.671875 L 93.015625 503.671875 Z M 89.210938 47.578125 L 89.210938 43.828125 L 93.015625 43.828125 L 93.015625 41.328125 L 86.710938 41.328125 L 86.710938 47.578125 Z M 406.367188 43.828125 L 410.171875 43.828125 L 410.171875 47.578125 L 412.675781 47.578125 L 412.675781 41.328125 L 406.367188 41.328125 Z M 406.367188 43.828125 " />
<path fill-rule="nonzero" fill="rgb(19.999695%, 70.979309%, 25.097656%)" fill-opacity="1" d="M 695.164062 68.125 L 693.910156 68.125 C 693.914062 63.765625 692.914062 59.882812 690.84375 57.109375 C 689.804688 55.722656 688.503906 54.59375 686.878906 53.773438 C 685.253906 52.957031 683.289062 52.445312 680.921875 52.34375 C 676.425781 52.152344 659.089844 51.769531 635.558594 51.292969 C 600.25 50.578125 550.9375 49.660156 509.75 48.871094 C 489.152344 48.476562 470.589844 48.113281 456.820312 47.828125 C 449.9375 47.683594 444.253906 47.558594 440.109375 47.460938 C 438.039062 47.410156 436.355469 47.363281 435.097656 47.328125 C 433.835938 47.289062 433.019531 47.257812 432.621094 47.234375 C 424.078125 46.667969 419.234375 45.933594 411.105469 43.789062 L 410.535156 43.636719 L 410.289062 43.105469 C 410.285156 43.101562 409.722656 41.886719 408.84375 39.988281 C 407.519531 37.144531 405.480469 32.765625 403.554688 28.664062 C 401.628906 24.5625 399.8125 20.730469 398.953125 19.011719 C 397.808594 16.707031 395.851562 12.964844 392.476562 9.8125 C 389.09375 6.671875 384.363281 4.101562 377.375 4.089844 L 122.007812 4.089844 C 115.019531 4.101562 110.289062 6.671875 106.90625 9.8125 C 103.527344 12.964844 101.578125 16.707031 100.429688 19.011719 C 98.773438 22.320312 95.933594 28.355469 93.515625 33.546875 C 92.308594 36.144531 91.203125 38.53125 90.398438 40.269531 C 89.597656 42.011719 89.097656 43.097656 89.097656 43.101562 L 88.851562 43.632812 L 88.285156 43.785156 C 88.28125 43.789062 87.355469 44.035156 85.714844 44.480469 C 74.230469 47.578125 27.785156 60.113281 20.199219 62.234375 C 16.871094 63.160156 12.785156 64.414062 9.617188 66.933594 C 8.027344 68.195312 6.664062 69.753906 5.679688 71.777344 C 4.699219 73.800781 4.089844 76.304688 4.089844 79.480469 L 4.089844 465.519531 C 4.089844 468.695312 4.699219 471.195312 5.679688 473.222656 C 7.15625 476.25 9.492188 478.265625 12.136719 479.734375 C 14.777344 481.195312 17.703125 482.070312 20.199219 482.765625 C 24.53125 483.976562 41.558594 488.589844 57.496094 492.898438 C 65.464844 495.054688 73.160156 497.132812 78.867188 498.671875 C 81.71875 499.441406 84.074219 500.078125 85.714844 500.519531 C 87.355469 500.960938 88.285156 501.214844 88.285156 501.214844 L 88.851562 501.367188 L 89.097656 501.898438 C 89.097656 501.902344 89.597656 502.988281 90.398438 504.726562 C 92.808594 509.941406 97.945312 521.019531 100.429688 525.988281 C 101.578125 528.292969 103.527344 532.035156 106.90625 535.1875 C 110.289062 538.328125 115.019531 540.898438 122.007812 540.910156 L 377.375 540.910156 C 384.363281 540.898438 389.09375 538.328125 392.476562 535.1875 C 395.851562 532.035156 397.808594 528.292969 398.953125 525.988281 C 400.101562 523.695312 402.945312 517.652344 405.488281 512.210938 C 406.757812 509.484375 407.960938 506.90625 408.84375 505.007812 C 409.722656 503.113281 410.285156 501.898438 410.289062 501.894531 L 410.535156 501.359375 L 411.105469 501.210938 C 419.234375 499.066406 424.078125 498.332031 432.621094 497.765625 C 433.144531 497.730469 434.4375 497.6875 436.496094 497.632812 C 451.867188 497.214844 508.71875 496.148438 563.867188 495.101562 C 591.4375 494.574219 618.582031 494.054688 639.898438 493.617188 C 661.207031 493.183594 676.707031 492.832031 680.921875 492.65625 C 683.289062 492.554688 685.253906 492.042969 686.878906 491.222656 C 689.3125 489.996094 691.035156 488.074219 692.195312 485.613281 C 693.351562 483.148438 693.914062 480.140625 693.910156 476.875 L 693.910156 68.125 L 696.414062 68.125 L 696.414062 476.875 C 696.410156 481.597656 695.351562 486.015625 692.851562 489.386719 C 691.601562 491.066406 689.980469 492.46875 688.003906 493.460938 C 686.027344 494.457031 683.695312 495.042969 681.027344 495.15625 C 676.453125 495.351562 659.15625 495.734375 635.609375 496.210938 C 600.296875 496.921875 550.984375 497.84375 509.796875 498.632812 C 489.203125 499.027344 470.640625 499.386719 456.875 499.675781 C 449.992188 499.816406 444.308594 499.945312 440.171875 500.042969 C 438.101562 500.09375 436.421875 500.136719 435.171875 500.175781 C 433.925781 500.210938 433.09375 500.242188 432.785156 500.265625 C 424.304688 500.832031 419.785156 501.519531 411.742188 503.632812 L 411.421875 502.421875 L 412.558594 502.949219 C 412.558594 502.949219 410.300781 507.816406 407.753906 513.269531 C 405.203125 518.726562 402.371094 524.75 401.191406 527.109375 C 400.015625 529.460938 397.921875 533.523438 394.183594 537.015625 C 390.453125 540.515625 385 543.421875 377.375 543.414062 L 122.007812 543.414062 C 114.382812 543.421875 108.929688 540.515625 105.199219 537.015625 C 101.457031 533.523438 99.371094 529.460938 98.191406 527.109375 C 94.832031 520.390625 86.824219 502.953125 86.824219 502.945312 L 87.960938 502.421875 L 87.632812 503.628906 C 87.628906 503.628906 28.234375 487.613281 19.523438 485.175781 C 16.15625 484.230469 11.730469 482.929688 8.0625 480.027344 C 6.230469 478.574219 4.59375 476.710938 3.429688 474.316406 C 2.265625 471.921875 1.585938 469.015625 1.585938 465.519531 L 1.585938 79.480469 C 1.585938 75.984375 2.265625 73.078125 3.429688 70.683594 C 5.175781 67.085938 7.980469 64.703125 10.925781 63.078125 C 13.878906 61.445312 17 60.53125 19.523438 59.824219 C 28.234375 57.386719 87.628906 41.371094 87.632812 41.367188 L 87.960938 42.578125 L 86.824219 42.054688 C 86.824219 42.046875 94.832031 24.609375 98.191406 17.890625 C 99.371094 15.535156 101.457031 11.476562 105.199219 7.984375 C 108.929688 4.484375 114.382812 1.578125 122.007812 1.585938 L 377.375 1.585938 C 385 1.578125 390.453125 4.484375 394.183594 7.984375 C 397.921875 11.476562 400.015625 15.535156 401.191406 17.890625 C 402.371094 20.25 405.203125 26.273438 407.753906 31.730469 C 410.300781 37.179688 412.558594 42.050781 412.558594 42.050781 L 411.421875 42.578125 L 411.742188 41.367188 C 419.785156 43.480469 424.304688 44.164062 432.785156 44.734375 C 433.199219 44.761719 434.527344 44.808594 436.5625 44.863281 C 451.902344 45.28125 508.769531 46.347656 563.914062 47.398438 C 591.488281 47.921875 618.632812 48.445312 639.949219 48.878906 C 661.269531 49.3125 676.738281 49.660156 681.027344 49.84375 C 683.695312 49.953125 686.027344 50.542969 688.003906 51.539062 C 690.976562 53.03125 693.113281 55.4375 694.460938 58.324219 C 695.816406 61.214844 696.414062 64.578125 696.414062 68.125 Z M 695.164062 68.125 " />
</svg>